<svg xmlns="http://www.w3.org/2000/svg" xmlns:xlink="http://www.w3.org/1999/xlink" viewBox="0 0 750 500"><defs><style>.cls-1,.cls-11,.cls-2,.cls-21,.cls-27,.cls-28,.cls-36,.cls-37,.cls-41,.cls-44,.cls-8{fill:none;}.cls-2,.cls-33,.cls-36,.cls-37,.cls-39,.cls-43{stroke:#60e5ff;}.cls-2,.cls-27,.cls-28,.cls-37,.cls-41,.cls-44{stroke-linejoin:round;}.cls-3{isolation:isolate;}.cls-4{fill:#2a3652;}.cls-5{fill:#05052d;}.cls-6{fill:#293eff;}.cls-7{fill:#b8b8b8;}.cls-11,.cls-8{stroke:#b8b8b8;}.cls-11,.cls-27,.cls-28,.cls-37,.cls-41,.cls-44,.cls-8{stroke-linecap:round;}.cls-11,.cls-21,.cls-33,.cls-36,.cls-39,.cls-43,.cls-8{stroke-miterlimit:10;}.cls-8{stroke-width:1.61px;}.cls-9{fill:#7186ff;}.cls-10{fill:#5e6eff;}.cls-11{stroke-width:1.64px;}.cls-12{fill:#cae3ff;}.cls-13,.cls-39,.cls-43{fill:#fff;}.cls-14{fill:#ffb999;}.cls-15{fill:#ff8663;}.cls-16{fill:url(#Degradado_sin_nombre_2);}.cls-17{fill:#8c8c8c;}.cls-18{fill:#bababa;}.cls-19{fill:#d1d1d1;}.cls-20{fill:#f06;}.cls-21,.cls-28,.cls-41{stroke:#fff;}.cls-21{stroke-width:7.19px;}.cls-22{fill:#2b2b4a;}.cls-23{fill:#24243a;}.cls-24{fill:#464670;}.cls-25{mix-blend-mode:soft-light;}.cls-26{fill:#50507c;}.cls-27{stroke:#ff8663;stroke-width:1.11px;}.cls-28,.cls-44{stroke-width:1.66px;}.cls-29{fill:#e6e6e6;}.cls-30{fill:#a67060;mix-blend-mode:multiply;}.cls-31{mix-blend-mode:overlay;}.cls-32{fill:#59ffff;}.cls-33,.cls-34,.cls-40{fill:#60e5ff;}.cls-33{fill-opacity:0.4;}.cls-34{opacity:0.4;}.cls-35{opacity:0.5;fill:url(#Líneas_diagonales_2);}.cls-38{clip-path:url(#clip-path);}.cls-39,.cls-43{fill-opacity:0.5;}.cls-41{stroke-width:1.4px;}.cls-42{fill:url(#Degradado_sin_nombre_34);}.cls-43{stroke-width:1.36px;}.cls-44{stroke:#05052d;}</style><radialGradient id="Degradado_sin_nombre_2" cx="281.08" cy="410.82" r="114.1" gradientTransform="translate(0 -54.92)" gradientUnits="userSpaceOnUse"><stop offset="0.26" stop-color="#defbff"/><stop offset="1" stop-color="#defbff" stop-opacity="0"/></radialGradient><pattern id="Líneas_diagonales_2" data-name="Líneas diagonales 2" width="72" height="72" patternTransform="translate(80.7 34.14)" patternUnits="userSpaceOnUse" viewBox="0 0 72 72"><rect class="cls-1" width="72" height="72"/><line class="cls-2" x1="66" y1="84" x2="84" y2="66"/><line class="cls-2" x1="66" y1="90" x2="90" y2="66"/><line class="cls-2" x1="66" y1="96" x2="96" y2="66"/><line class="cls-2" x1="66" y1="102" x2="102" y2="66"/><line class="cls-2" x1="66" y1="108" x2="108" y2="66"/><line class="cls-2" x1="66" y1="114" x2="114" y2="66"/><line class="cls-2" x1="66" y1="120" x2="120" y2="66"/><line class="cls-2" x1="66" y1="126" x2="126" y2="66"/><line class="cls-2" x1="66" y1="132" x2="132" y2="66"/><line class="cls-2" x1="66" y1="138" x2="138" y2="66"/><line class="cls-2" x1="66" y1="144" x2="144" y2="66"/><line class="cls-2" x1="66" y1="150" x2="150" y2="66"/><line class="cls-2" x1="72" y1="150" x2="150" y2="72"/><line class="cls-2" x1="-6" y1="84" x2="12" y2="66"/><line class="cls-2" x1="-6" y1="90" x2="18" y2="66"/><line class="cls-2" x1="-6" y1="96" x2="24" y2="66"/><line class="cls-2" x1="-6" y1="102" x2="30" y2="66"/><line class="cls-2" x1="-6" y1="108" x2="36" y2="66"/><line class="cls-2" x1="-6" y1="114" x2="42" y2="66"/><line class="cls-2" x1="-6" y1="120" x2="48" y2="66"/><line class="cls-2" x1="-6" y1="126" x2="54" y2="66"/><line class="cls-2" x1="-6" y1="132" x2="60" y2="66"/><line class="cls-2" x1="-6" y1="138" x2="66" y2="66"/><line class="cls-2" x1="-6" y1="144" x2="72" y2="66"/><line class="cls-2" x1="-6" y1="150" x2="78" y2="66"/><line class="cls-2" y1="150" x2="78" y2="72"/><line class="cls-2" x1="-78" y1="144" y2="66"/><line class="cls-2" x1="-78" y1="150" x2="6" y2="66"/><line class="cls-2" x1="-72" y1="150" x2="6" y2="72"/><line class="cls-2" x1="66" y1="12" x2="84" y2="-6"/><line class="cls-2" x1="66" y1="18" x2="90" y2="-6"/><line class="cls-2" x1="66" y1="24" x2="96" y2="-6"/><line class="cls-2" x1="66" y1="30" x2="102" y2="-6"/><line class="cls-2" x1="66" y1="36" x2="108" y2="-6"/><line class="cls-2" x1="66" y1="42" x2="114" y2="-6"/><line class="cls-2" x1="66" y1="48" x2="120" y2="-6"/><line class="cls-2" x1="66" y1="54" x2="126" y2="-6"/><line class="cls-2" x1="66" y1="60" x2="132" y2="-6"/><line class="cls-2" x1="66" y1="66" x2="138" y2="-6"/><line class="cls-2" x1="66" y1="72" x2="144" y2="-6"/><line class="cls-2" x1="66" y1="78" x2="150" y2="-6"/><line class="cls-2" x1="72" y1="78" x2="150"/><line class="cls-2" x1="-6" y1="12" x2="12" y2="-6"/><line class="cls-2" x1="-6" y1="18" x2="18" y2="-6"/><line class="cls-2" x1="-6" y1="24" x2="24" y2="-6"/><line class="cls-2" x1="-6" y1="30" x2="30" y2="-6"/><line class="cls-2" x1="-6" y1="36" x2="36" y2="-6"/><line class="cls-2" x1="-6" y1="42" x2="42" y2="-6"/><line class="cls-2" x1="-6" y1="48" x2="48" y2="-6"/><line class="cls-2" x1="-6" y1="54" x2="54" y2="-6"/><line class="cls-2" x1="-6" y1="60" x2="60" y2="-6"/><line class="cls-2" x1="-6" y1="66" x2="66" y2="-6"/><line class="cls-2" x1="-6" y1="72" x2="72" y2="-6"/><line class="cls-2" x1="-6" y1="78" x2="78" y2="-6"/><line class="cls-2" y1="78" x2="78"/><line class="cls-2" x1="6" y1="78" x2="78" y2="6"/><line class="cls-2" x1="12" y1="78" x2="78" y2="12"/><line class="cls-2" x1="18" y1="78" x2="78" y2="18"/><line class="cls-2" x1="24" y1="78" x2="78" y2="24"/><line class="cls-2" x1="30" y1="78" x2="78" y2="30"/><line class="cls-2" x1="36" y1="78" x2="78" y2="36"/><line class="cls-2" x1="42" y1="78" x2="78" y2="42"/><line class="cls-2" x1="48" y1="78" x2="78" y2="48"/><line class="cls-2" x1="54" y1="78" x2="78" y2="54"/><line class="cls-2" x1="60" y1="78" x2="78" y2="60"/><line class="cls-2" x1="66" y1="78" x2="78" y2="66"/><line class="cls-2" x1="-78" y1="72" y2="-6"/><line class="cls-2" x1="-78" y1="78" x2="6" y2="-6"/><line class="cls-2" x1="-72" y1="78" x2="6"/><line class="cls-2" x1="-66" y1="78" x2="6" y2="6"/><line class="cls-2" x1="-60" y1="78" x2="6" y2="12"/><line class="cls-2" x1="-54" y1="78" x2="6" y2="18"/><line class="cls-2" x1="-48" y1="78" x2="6" y2="24"/><line class="cls-2" x1="-42" y1="78" x2="6" y2="30"/><line class="cls-2" x1="-36" y1="78" x2="6" y2="36"/><line class="cls-2" x1="-30" y1="78" x2="6" y2="42"/><line class="cls-2" x1="-24" y1="78" x2="6" y2="48"/><line class="cls-2" x1="-18" y1="78" x2="6" y2="54"/><line class="cls-2" x1="-12" y1="78" x2="6" y2="60"/><line class="cls-2" x1="-6" y1="78" x2="6" y2="66"/><line class="cls-2" x1="66" x2="144" y2="-78"/><line class="cls-2" x1="66" y1="6" x2="150" y2="-78"/><line class="cls-2" x1="72" y1="6" x2="150" y2="-72"/><line class="cls-2" x1="-6" x2="72" y2="-78"/><line class="cls-2" x1="-6" y1="6" x2="78" y2="-78"/><line class="cls-2" y1="6" x2="78" y2="-72"/><line class="cls-2" x1="6" y1="6" x2="78" y2="-66"/><line class="cls-2" x1="12" y1="6" x2="78" y2="-60"/><line class="cls-2" x1="18" y1="6" x2="78" y2="-54"/><line class="cls-2" x1="24" y1="6" x2="78" y2="-48"/><line class="cls-2" x1="30" y1="6" x2="78" y2="-42"/><line class="cls-2" x1="36" y1="6" x2="78" y2="-36"/><line class="cls-2" x1="42" y1="6" x2="78" y2="-30"/><line class="cls-2" x1="48" y1="6" x2="78" y2="-24"/><line class="cls-2" x1="54" y1="6" x2="78" y2="-18"/><line class="cls-2" x1="60" y1="6" x2="78" y2="-12"/><line class="cls-2" x1="66" y1="6" x2="78" y2="-6"/><line class="cls-2" x1="-78" y2="-78"/><line class="cls-2" x1="-78" y1="6" x2="6" y2="-78"/><line class="cls-2" x1="-72" y1="6" x2="6" y2="-72"/><line class="cls-2" x1="-66" y1="6" x2="6" y2="-66"/><line class="cls-2" x1="-60" y1="6" x2="6" y2="-60"/><line class="cls-2" x1="-54" y1="6" x2="6" y2="-54"/><line class="cls-2" x1="-48" y1="6" x2="6" y2="-48"/><line class="cls-2" x1="-42" y1="6" x2="6" y2="-42"/><line class="cls-2" x1="-36" y1="6" x2="6" y2="-36"/><line class="cls-2" x1="-30" y1="6" x2="6" y2="-30"/><line class="cls-2" x1="-24" y1="6" x2="6" y2="-24"/><line class="cls-2" x1="-18" y1="6" x2="6" y2="-18"/><line class="cls-2" x1="-12" y1="6" x2="6" y2="-12"/><line class="cls-2" x1="-6" y1="6" x2="6" y2="-6"/></pattern><clipPath id="clip-path"><path class="cls-1" d="M173.39,303.17c1.4,4.87,1,12-3.57,15.3-2.3,1.47-5.73.43-5.67-2.49.06-3.15.65-6,.16-9l-34.93,18.65,20,39.2,53.28-27.76-20.39-38.28Z"/></clipPath><radialGradient id="Degradado_sin_nombre_34" cx="515.69" cy="417.27" r="110.56" gradientTransform="translate(0 -122.43) scale(1 1.16)" gradientUnits="userSpaceOnUse"><stop offset="0.26" stop-color="#60e5ff"/><stop offset="1" stop-color="#60e5ff" stop-opacity="0"/></radialGradient></defs><title>2</title><g class="cls-3"><g id="OBJECTS"><ellipse class="cls-4" cx="515.2" cy="427.57" rx="100.63" ry="17.34"/><ellipse class="cls-4" cx="284.28" cy="427.57" rx="100.63" ry="17.34"/><path class="cls-5" d="M243.68,378c2,1.06,17.2,12.13,39.8,12.13s41.76-11.94,44-12.41A59.09,59.09,0,0,1,331.6,386a.55.55,0,0,1-.07.54L295.09,432c-8.23,1.82-18.75.29-18.75.29l-36.55-46.28a.55.55,0,0,1-.05-.59S243.44,377.85,243.68,378Z"/><path class="cls-6" d="M334.61,428.46c14.08-7.17,44.88-26.48,57.85-55.4,1.8-4-2.71-21-17.49-15.52-9.14,3.4-56.66,20.34-64.34,31.08-12.41,17.36-13,33.17-15.54,43.42C302.06,435.23,327.57,432,334.61,428.46Z"/><path class="cls-6" d="M235.06,428.58C221,421.41,180.2,390.4,178.3,373.07c-.48-4.42-4.57-18,13-17.38,9.14,3.4,60.24,23,68.86,32.95,10.8,12.44,14.34,34,15.54,43.42C268.69,435.23,242.1,432.16,235.06,428.58Z"/><path class="cls-5" d="M291,415.43a18.7,18.7,0,0,0,1.94.63c5.82,1.38,21.65,3.39,33,3.54,11.1.14,12.49,5.67,12.43,8.79s-6.2,10.1-10.76,10.71c-14.09,1.9-31-4.88-34.42-5.24-7-.74-10.77-6.08-11.19-9.07,0,0,6.69,1.95,5.27-1.54a5.71,5.71,0,0,1,3.61-7.61C291.1,415.57,291.16,415.51,291,415.43Z"/><path class="cls-7" d="M323.1,435.86c-2.22-6.87.12-13.17,1.68-16.29l1.16,0c11.1.14,12.49,5.67,12.43,8.79s-6.2,10.1-10.76,10.71c-14.09,1.9-31-4.88-34.42-5.24a13.5,13.5,0,0,1-7.85-3.49C294.81,433,323.27,440.55,323.1,435.86Z"/><path class="cls-8" d="M300.15,416.76h0a19.7,19.7,0,0,0-2.68,10.06v.76"/><path class="cls-8" d="M304.7,417.52h0A19.7,19.7,0,0,0,302,427.59v.76"/><path class="cls-8" d="M309.3,418.14h0a19.7,19.7,0,0,0-2.68,10.06V429"/><path class="cls-8" d="M313.21,418.61h0a19.7,19.7,0,0,0-2.68,10.06v.76"/><path class="cls-9" d="M192.68,356.47s73.75,41.71,104.15,58.61c0,6.13-.08,9.82-.47,11.27-1,2.54-5.23,8.32-5.23,8.32s-104.64-36.26-115.82-57C171,369.69,178.49,352.5,192.68,356.47Z"/><path class="cls-10" d="M174.84,376.58c-.07-.19-.14-.38-.2-.57s-.06-.23-.09-.34-.1-.36-.14-.55,0-.25-.07-.38-.07-.37-.09-.56,0-.26,0-.4,0-.38-.05-.57,0-.27,0-.41,0-.39,0-.59,0-.27,0-.41,0-.41,0-.61,0-.27,0-.4,0-.42.07-.64,0-.26.06-.39.07-.44.12-.66l.08-.38q.07-.34.16-.68l.1-.35c.07-.23.14-.47.21-.7l.11-.33c.08-.24.17-.48.27-.72l.12-.3c.1-.25.21-.5.33-.75l.12-.26c.13-.26.26-.52.4-.78l.11-.2c.15-.28.32-.55.49-.83l.07-.12q.3-.47.62-.92h0c.3.53.59,1.09.89,1.68,12.8,25.39,104.55,58.32,117.86,62.87h0c-1.05,2.54-5.23,8.32-5.23,8.32s-104.64-36.26-115.82-57c-.14-.26-.26-.52-.38-.8C174.9,376.77,174.87,376.67,174.84,376.58Z"/><path class="cls-5" d="M280.22,415.24a19,19,0,0,1-2,.64c-5.92,1.4-22,3.44-33.57,3.59-11.28.15-12.7,5.76-12.63,8.93s6.3,10.26,10.94,10.89c14.31,1.93,31.54-5,35-5.32,7.15-.75,10.94-6.18,11.37-9.22,0,0-6.8,2-5.35-1.56a5.8,5.8,0,0,0-3.67-7.74C280.08,415.38,280,415.32,280.22,415.24Z"/><path class="cls-7" d="M247.57,436c2.25-7-.12-13.38-1.7-16.55l-1.18,0c-11.28.15-12.7,5.76-12.63,8.93s6.3,10.26,10.94,10.89c14.31,1.93,31.54-5,35-5.32a13.72,13.72,0,0,0,8-3.55C276.32,433.1,247.4,440.76,247.57,436Z"/><path class="cls-11" d="M270.89,416.58h0a20,20,0,0,1,2.72,10.23v.77"/><path class="cls-11" d="M266.27,417.36h0A20,20,0,0,1,269,427.59v.77"/><path class="cls-11" d="M261.59,418h0a20,20,0,0,1,2.72,10.23V429"/><path class="cls-11" d="M257.62,418.47h0a20,20,0,0,1,2.72,10.23v.77"/><path class="cls-9" d="M378.66,356.47s-73.75,41.71-104.15,58.61c0,6.13.08,9.82.47,11.27,1,2.54,5.23,8.32,5.23,8.32s104.64-36.26,115.82-57C400.32,369.69,392.85,352.5,378.66,356.47Z"/><path class="cls-10" d="M396.5,376.58c.07-.19.14-.38.2-.57s.06-.23.09-.34.1-.36.14-.55,0-.25.07-.38.07-.37.09-.56,0-.26,0-.4,0-.38.05-.57,0-.27,0-.41,0-.39,0-.59,0-.27,0-.41,0-.41,0-.61,0-.27,0-.4,0-.42-.07-.64,0-.26-.06-.39-.07-.44-.12-.66l-.08-.38q-.07-.34-.16-.68l-.1-.35c-.07-.23-.14-.47-.21-.7l-.11-.33c-.08-.24-.17-.48-.27-.72l-.12-.3c-.1-.25-.21-.5-.33-.75l-.12-.26c-.13-.26-.26-.52-.4-.78l-.11-.2c-.15-.28-.32-.55-.49-.83l-.07-.12q-.3-.47-.62-.92h0c-.3.53-.59,1.09-.89,1.68C380,388.86,288.28,421.79,275,426.34h0c1.05,2.54,5.23,8.32,5.23,8.32s104.64-36.26,115.82-57c.14-.26.26-.52.38-.8C396.43,376.77,396.46,376.67,396.5,376.58Z"/><path class="cls-12" d="M245.19,263.71a11.47,11.47,0,0,0-3.5,10l2,49.69v0c2.07-6.88,4.4-13.68,6.48-20.55s4.17-14,4-21.13c-.1-5.83-1.53-11.5-3.05-17.12A13.59,13.59,0,0,0,245.19,263.71Z"/><path class="cls-13" d="M325.32,376.4l4.05-102.68a11.46,11.46,0,0,0-6.7-12.12,245.78,245.78,0,0,1-23.25-12.39h-27.8l-23.21,12.37a11.47,11.47,0,0,0-6.71,12.13l4.06,102.7Z"/><path class="cls-12" d="M325.88,263.71a11.47,11.47,0,0,1,3.5,10l-2,49.69v0c-2.07-6.88-4.4-13.68-6.48-20.55s-4.17-14-4-21.13c.1-5.83,1.53-11.5,3.05-17.12A13.59,13.59,0,0,1,325.88,263.71Z"/><path class="cls-14" d="M322.53,367.89c3.8-2.42,20.9-29.42,20.9-29.42l-18.49-39.91,19.49-16.85s20.64,55.69,21.59,62c1.14,7.55-24.58,26.12-35.81,36C330.2,379.75,322.4,368,322.53,367.89Z"/><path class="cls-15" d="M349.25,317.86a21.92,21.92,0,0,0,6.29-5.6c-5.51-15.39-11.12-30.54-11.12-30.54l-19.49,16.85,10.9,23.52A31.61,31.61,0,0,0,349.25,317.86Z"/><path class="cls-14" d="M322.82,381.5a42.26,42.26,0,0,0-1.32,12c.12,3.44,5.48,3.45,5.36,0A37,37,0,0,1,328,382.93c.86-3.34-4.31-4.77-5.16-1.42Z"/><path class="cls-15" d="M315.55,372.08A20.65,20.65,0,0,1,306.4,374c-3.45,0-3.45,5.31,0,5.36a26.38,26.38,0,0,0,11.86-2.68c3.06-1.58.36-6.2-2.7-4.62Z"/><path class="cls-14" d="M322.53,367.89l-7.34,4.3a1.54,1.54,0,0,0-.38,2.39l12,12.94,3.43-7.77Z"/><path class="cls-14" d="M319.59,378.91a46.13,46.13,0,0,0-5.85,19.29c-.27,3.44,5.08,3.42,5.36,0a39.75,39.75,0,0,1,5.12-16.59c1.7-3-2.93-5.71-4.62-2.7Z"/><path class="cls-14" d="M316.76,375a54.89,54.89,0,0,0-11.24,22.58c-.78,3.35,4.38,4.78,5.16,1.42a48.93,48.93,0,0,1,9.86-20.21c2.17-2.64-1.6-6.45-3.79-3.79Z"/><path class="cls-14" d="M315,372.3A66.28,66.28,0,0,0,299.16,386c-2.2,2.62,1.57,6.43,3.79,3.79a61.75,61.75,0,0,1,14.81-12.88c2.92-1.81.24-6.45-2.7-4.62Z"/><path class="cls-13" d="M331.2,318.24c6.3-.43,13.92-2.85,18.58-6.48,2.57-2,5.24-5.72,5.71-8.14-5.84-12.29-13.56-29.21-15.13-30.73-2.94-2.84-15.07-11-18.1-11.32-4.67-.55-6.08,8.27-6.49,11.43-.76,5.86.77,11.68,3.28,16.95C323.53,299.33,327.49,308.33,331.2,318.24Z"/><path class="cls-14" d="M248.35,367.89c-3.8-2.42-20.9-29.42-20.9-29.42l18.49-39.91-19.49-16.85s-20.64,55.69-21.59,62c-1.14,7.55,24.58,26.12,35.81,36C240.68,379.75,248.48,368,248.35,367.89Z"/><path class="cls-15" d="M221.62,317.86a21.92,21.92,0,0,1-6.29-5.6c5.51-15.39,11.12-30.54,11.12-30.54l19.49,16.85L235,322.09A31.61,31.61,0,0,1,221.62,317.86Z"/><path class="cls-14" d="M242.9,382.93A37,37,0,0,1,244,393.54c-.12,3.45,5.23,3.44,5.36,0a42.26,42.26,0,0,0-1.32-12c-.86-3.34-6-1.92-5.16,1.42Z"/><path class="cls-15" d="M252.62,376.71a26.38,26.38,0,0,0,11.86,2.68c3.44,0,3.45-5.4,0-5.36a20.65,20.65,0,0,1-9.16-1.95c-3.06-1.58-5.77,3-2.7,4.62Z"/><path class="cls-14" d="M248.35,367.89l7.34,4.3a1.54,1.54,0,0,1,.38,2.39l-12,12.94-3.43-7.77Z"/><path class="cls-14" d="M246.66,381.62a39.75,39.75,0,0,1,5.12,16.59c.27,3.41,5.63,3.44,5.36,0a46.14,46.14,0,0,0-5.85-19.29c-1.7-3-6.33-.3-4.62,2.7Z"/><path class="cls-14" d="M250.33,378.81A48.93,48.93,0,0,1,260.19,399c.78,3.36,5.95,1.94,5.16-1.42A54.89,54.89,0,0,0,254.12,375c-2.19-2.67-6,1.14-3.79,3.79Z"/><path class="cls-14" d="M253.13,376.93a61.75,61.75,0,0,1,14.81,12.88c2.22,2.64,6-1.16,3.79-3.79a66.28,66.28,0,0,0-15.89-13.72c-2.94-1.82-5.63,2.81-2.7,4.62Z"/><path class="cls-13" d="M239.67,318.24c-6.3-.43-13.92-2.85-18.58-6.48-2.57-2-5.24-5.72-5.71-8.14,5.84-12.29,13.56-29.21,15.13-30.73,2.94-2.84,15.07-11,18.1-11.32,4.67-.55,6.08,8.27,6.49,11.43.76,5.86-.77,11.68-3.28,16.95C247.35,299.33,243.39,308.33,239.67,318.24Z"/><polygon class="cls-16" points="409.18 237.62 164.21 237.62 224.58 351.85 341.15 351.85 409.18 237.62"/><path class="cls-17" d="M227.93,410.07c0,.14-.07.28-.08.42a6.8,6.8,0,0,0,6.77,7.41h95.15a6.8,6.8,0,0,0,6.77-7.41c0-.14-.06-.28-.08-.42Z"/><path class="cls-18" d="M329.5,414.49H234.91a7.25,7.25,0,0,1-7.05-6.54L222.55,349c-.4-4.43,2.53-8.06,6.54-8.06H335.32c4,0,6.93,3.63,6.54,8.06L336.55,408A7.25,7.25,0,0,1,329.5,414.49Z"/><path class="cls-19" d="M335.32,341H266.74l69.21,69.21a7,7,0,0,0,.61-2.22l5.3-58.93C342.25,344.6,339.33,341,335.32,341Z"/><path class="cls-13" d="M289.27,379.86a7.08,7.08,0,1,1-7.06-7.56A7.28,7.28,0,0,1,289.27,379.86Z"/><path class="cls-20" d="M346.43,295.26a27.51,27.51,0,0,0-25.17,44.61L319.84,350l10.45-2.88a27.51,27.51,0,1,0,16.15-51.85Z"/><line class="cls-21" x1="358.15" y1="310.5" x2="327.11" y2="333.86"/><line class="cls-21" x1="330.95" y1="306.66" x2="354.31" y2="337.7"/><path class="cls-5" d="M475.88,378c2,1.06,17.2,12.13,39.8,12.13s41.76-11.94,44-12.41A59.09,59.09,0,0,1,563.8,386a.55.55,0,0,1-.07.54L527.29,432c-8.23,1.82-18.75.29-18.75.29L472,386.06a.55.55,0,0,1-.05-.59S475.64,377.85,475.88,378Z"/><path class="cls-5" d="M566.81,428.46c14.08-7.17,44.88-26.48,57.85-55.4,1.8-4-2.71-21-17.49-15.52-9.14,3.4-56.66,20.34-64.34,31.08-12.41,17.36-13,33.17-15.54,43.42C534.26,435.23,559.77,432,566.81,428.46Z"/><path class="cls-5" d="M467.26,428.58c-14.08-7.17-54.86-38.18-56.76-55.51-.48-4.42-4.57-18,13-17.38,9.14,3.4,60.24,23,68.86,32.95,10.8,12.44,14.34,34,15.54,43.42C500.89,435.23,474.3,432.16,467.26,428.58Z"/><path class="cls-5" d="M523.17,415.43a18.7,18.7,0,0,0,1.94.63c5.82,1.38,21.65,3.39,33,3.54,11.1.14,12.49,5.67,12.43,8.79s-6.2,10.1-10.76,10.71c-14.09,1.9-31-4.88-34.42-5.24-7-.74-10.77-6.08-11.19-9.07,0,0,6.69,1.95,5.27-1.54a5.71,5.71,0,0,1,3.61-7.61C523.3,415.57,523.36,415.51,523.17,415.43Z"/><path class="cls-7" d="M555.3,435.86c-2.22-6.87.12-13.17,1.68-16.29l1.16,0c11.1.14,12.49,5.67,12.43,8.79s-6.2,10.1-10.76,10.71c-14.09,1.9-31-4.88-34.42-5.24a13.5,13.5,0,0,1-7.85-3.49C527,433,555.47,440.55,555.3,435.86Z"/><path class="cls-8" d="M532.35,416.76h0a19.7,19.7,0,0,0-2.68,10.06v.76"/><path class="cls-8" d="M536.9,417.52h0a19.7,19.7,0,0,0-2.68,10.06v.76"/><path class="cls-8" d="M541.5,418.14h0a19.7,19.7,0,0,0-2.68,10.06V429"/><path class="cls-8" d="M545.41,418.61h0a19.7,19.7,0,0,0-2.68,10.06v.76"/><path class="cls-22" d="M424.88,356.47S498.63,398.18,529,415.08c0,6.13-.08,9.82-.47,11.27-1,2.54-5.23,8.32-5.23,8.32s-104.64-36.26-115.82-57C403.22,369.69,410.69,352.5,424.88,356.47Z"/><path class="cls-23" d="M407,376.58c-.07-.19-.14-.38-.2-.57s-.06-.23-.09-.34-.1-.36-.14-.55,0-.25-.07-.38-.07-.37-.09-.56,0-.26,0-.4,0-.38-.05-.57,0-.27,0-.41,0-.39,0-.59,0-.27,0-.41,0-.41,0-.61,0-.27,0-.4,0-.42.07-.64,0-.26.06-.39.07-.44.12-.66l.08-.38q.07-.34.16-.68l.1-.35c.07-.23.14-.47.21-.7l.11-.33c.08-.24.17-.48.27-.72l.12-.3c.1-.25.21-.5.33-.75l.12-.26c.13-.26.26-.52.4-.78l.11-.2c.15-.28.32-.55.49-.83l.07-.12q.3-.47.62-.92h0c.3.53.59,1.09.89,1.68,12.8,25.39,104.55,58.32,117.86,62.87h0c-1.05,2.54-5.23,8.32-5.23,8.32s-104.64-36.26-115.82-57c-.14-.26-.26-.52-.38-.8C407.1,376.77,407.07,376.67,407,376.58Z"/><path class="cls-5" d="M512.42,415.24a19,19,0,0,1-2,.64c-5.92,1.4-22,3.44-33.57,3.59-11.28.15-12.7,5.76-12.63,8.93s6.3,10.26,10.94,10.89c14.31,1.93,31.54-5,35-5.32,7.15-.75,10.94-6.18,11.37-9.22,0,0-6.8,2-5.35-1.56a5.8,5.8,0,0,0-3.67-7.74C512.28,415.38,512.23,415.32,512.42,415.24Z"/><path class="cls-7" d="M479.77,436c2.25-7-.12-13.38-1.7-16.55l-1.18,0c-11.28.15-12.7,5.76-12.63,8.93s6.3,10.26,10.94,10.89c14.31,1.93,31.54-5,35-5.32a13.72,13.72,0,0,0,8-3.55C508.52,433.1,479.6,440.76,479.77,436Z"/><path class="cls-11" d="M503.09,416.58h0a20,20,0,0,1,2.72,10.23v.77"/><path class="cls-11" d="M498.47,417.36h0a20,20,0,0,1,2.72,10.23v.77"/><path class="cls-11" d="M493.79,418h0a20,20,0,0,1,2.72,10.23V429"/><path class="cls-11" d="M489.82,418.47h0a20,20,0,0,1,2.72,10.23v.77"/><path class="cls-24" d="M610.86,356.47s-73.75,41.71-104.15,58.61c0,6.13.08,9.82.47,11.27,1,2.54,5.23,8.32,5.23,8.32s104.64-36.26,115.82-57C632.51,369.69,625,352.5,610.86,356.47Z"/><path class="cls-22" d="M628.7,376.58c.07-.19.14-.38.2-.57s.06-.23.09-.34.1-.36.14-.55,0-.25.07-.38.07-.37.09-.56,0-.26,0-.4,0-.38.05-.57,0-.27,0-.41,0-.39,0-.59,0-.27,0-.41,0-.41,0-.61,0-.27,0-.4,0-.42-.07-.64,0-.26-.06-.39-.07-.44-.12-.66l-.08-.38q-.07-.34-.16-.68l-.1-.35c-.07-.23-.14-.47-.21-.7l-.11-.33c-.08-.24-.17-.48-.27-.72l-.12-.3c-.1-.25-.21-.5-.33-.75l-.12-.26c-.13-.26-.26-.52-.4-.78l-.11-.2c-.15-.28-.32-.55-.49-.83l-.07-.12q-.3-.47-.62-.92h0c-.3.53-.59,1.09-.89,1.68-12.8,25.39-104.55,58.32-117.86,62.87h0c1.05,2.54,5.23,8.32,5.23,8.32s104.64-36.26,115.82-57c.14-.26.26-.52.38-.8C628.63,376.77,628.66,376.67,628.7,376.58Z"/><path class="cls-22" d="M557.52,376.4l4.05-102.68a11.46,11.46,0,0,0-6.7-12.12,245.78,245.78,0,0,1-23.25-12.39h-27.8l-23.21,12.37a11.47,11.47,0,0,0-6.71,12.13L478,376.4Z"/><path class="cls-5" d="M476.34,321.87c2.93-7.86,5.8-15.74,7.55-24a91.49,91.49,0,0,0,1.52-23.75c-.26-4.93-1.36-9.56-4.32-12.85l-.48.25a11.47,11.47,0,0,0-6.71,12.13Z"/><path class="cls-5" d="M559.12,321.87c-2.93-7.86-5.8-15.74-7.55-24a91.5,91.5,0,0,1-1.52-23.75c.26-4.93,1.36-9.56,4.32-12.85l.48.25a11.47,11.47,0,0,1,6.71,12.13Z"/><g class="cls-25"><path class="cls-13" d="M521.2,270.41l.24,6.63c0,.93,1.49.94,1.45,0l-.24-6.63c0-.93-1.49-.94-1.45,0Z"/></g><path class="cls-14" d="M553.15,368c3.8-2.42,22.48-29.49,22.48-29.49l-18.49-39.91,19.49-16.85s20.64,55.69,21.59,62c1.14,7.55-25.06,24.09-36.29,34C561.92,377.71,553,368,553.15,368Z"/><path class="cls-14" d="M555.4,380.79a40,40,0,0,0-1.25,11.4c.12,3.26,5.19,3.27,5.08,0a35,35,0,0,1,1.07-10.05c.81-3.17-4.08-4.52-4.89-1.35Z"/><path class="cls-15" d="M548.52,371.87a19.57,19.57,0,0,1-8.68,1.84c-3.27,0-3.27,5,0,5.08a25,25,0,0,0,11.24-2.54c2.9-1.5.34-5.88-2.56-4.38Z"/><path class="cls-14" d="M555.41,367.89,548.17,372a1.46,1.46,0,0,0-.36,2.27l11.34,12.26,3.25-7.37Z"/><path class="cls-14" d="M552.35,378.34a43.72,43.72,0,0,0-5.55,18.28c-.26,3.26,4.82,3.24,5.08,0a37.67,37.67,0,0,1,4.86-15.72c1.61-2.85-2.77-5.41-4.38-2.56Z"/><path class="cls-14" d="M549.66,374.65A52,52,0,0,0,539,396c-.74,3.18,4.15,4.53,4.89,1.35a46.37,46.37,0,0,1,9.34-19.16c2.06-2.51-1.51-6.12-3.59-3.59Z"/><path class="cls-14" d="M548,372.07a62.81,62.81,0,0,0-15.06,13c-2.09,2.49,1.49,6.1,3.59,3.59a58.52,58.52,0,0,1,14-12.21c2.77-1.72.22-6.11-2.56-4.38Z"/><path class="cls-22" d="M554.47,261.57c3,.36,15.16,8.49,18.1,11.32,2.67,2.58,18,43.56,24.58,60.51,2.36,6.05,2.75,14.48-2.1,19.51-5.32,5.52-10.88,10.47-15.87,16.28a5.68,5.68,0,0,0-1.26,2c-.56,1.85.84,3.94.12,5.73s-3.16,2.19-5.13,2.12a9,9,0,0,0-4.81.68c-1.22.66-2.5,2.32-3.86.73a50.43,50.43,0,0,0-6.09-5.57,20.55,20.55,0,0,0-10.69-4l2.65-2.34c.46-.41,3.59-3.12,4.07-3a3.88,3.88,0,0,1-1.93-5.47c1.11-1.79,3.42-2.28,5.41-3a18.68,18.68,0,0,0,9.49-7.61,31.57,31.57,0,0,0,2.34-5.53c.88-2.18,2-3.92,2-6.39-.12-5.14-2.58-9.69-4.77-14.2-5.37-11.06-10.16-22.39-15.44-33.49-2.51-5.27-4-11.09-3.28-16.95C548.39,269.84,549.8,261,554.47,261.57Z"/><path class="cls-5" d="M550.11,368.57c.46-.41,3.59-3.12,4.06-3,7.79.19,15.77,6.59,19.27,13.41h-.53a11.71,11.71,0,0,0-5.35.87A15.43,15.43,0,0,1,562,381.5a6.4,6.4,0,0,0-.93-4.3c-1.22-1.92-3.8-3.08-5.77-4.1a20.72,20.72,0,0,0-3.94-1.54c-.59-.16-3.43-1.09-3.91-.66Z"/><path class="cls-26" d="M547.39,262.94l21.14,12.86c1.6,1,3.07-1.54,1.47-2.51l-21.14-12.86c-1.6-1-3.07,1.54-1.47,2.51Z"/><path class="cls-26" d="M575.21,288.35,586.31,317c.67,1.73,3.48,1,2.8-.77L578,287.57c-.67-1.73-3.48-1-2.8.77Z"/><path class="cls-14" d="M482.51,368c-3.8-2.42-22.48-29.49-22.48-29.49l18.49-39.91L459,281.72s-20.64,55.69-21.59,62c-1.14,7.55,25.06,24.09,36.29,34C473.74,377.71,482.64,368,482.51,368Z"/><path class="cls-14" d="M475.36,382.14a35,35,0,0,1,1.07,10.05c-.12,3.27,5,3.26,5.08,0a40.05,40.05,0,0,0-1.25-11.4c-.81-3.16-5.71-1.82-4.89,1.35Z"/><path class="cls-15" d="M484.57,376.25a25,25,0,0,0,11.24,2.54c3.26,0,3.27-5.12,0-5.08a19.57,19.57,0,0,1-8.68-1.84c-2.9-1.49-5.47,2.88-2.56,4.38Z"/><path class="cls-14" d="M480.24,367.89l7.25,4.07a1.46,1.46,0,0,1,.36,2.27L476.5,386.49l-3.25-7.37Z"/><path class="cls-14" d="M478.92,380.9a37.67,37.67,0,0,1,4.86,15.72c.26,3.23,5.33,3.26,5.08,0a43.73,43.73,0,0,0-5.55-18.28c-1.61-2.84-6-.29-4.38,2.56Z"/><path class="cls-14" d="M482.4,378.24a46.37,46.37,0,0,1,9.34,19.16c.74,3.18,5.64,1.83,4.89-1.35A52,52,0,0,0,486,374.65c-2.07-2.53-5.65,1.08-3.59,3.59Z"/><path class="cls-14" d="M485.05,376.46a58.52,58.52,0,0,1,14,12.21c2.1,2.51,5.68-1.1,3.59-3.59a62.81,62.81,0,0,0-15.06-13c-2.78-1.73-5.33,2.66-2.56,4.38Z"/><path class="cls-22" d="M481.18,261.57c-3,.36-15.16,8.49-18.1,11.32-2.67,2.58-18,43.56-24.58,60.51-2.36,6.05-2.75,14.48,2.1,19.51,5.32,5.52,10.88,10.47,15.87,16.28a5.68,5.68,0,0,1,1.26,2c.56,1.85-.84,3.94-.12,5.73s3.16,2.19,5.13,2.12a9,9,0,0,1,4.81.68c1.22.66,2.5,2.32,3.86.73a50.43,50.43,0,0,1,6.09-5.57,20.55,20.55,0,0,1,10.69-4l-2.65-2.34c-.46-.41-3.59-3.12-4.07-3a3.88,3.88,0,0,0,1.93-5.47c-1.11-1.79-3.42-2.28-5.41-3a18.68,18.68,0,0,1-9.49-7.61,31.57,31.57,0,0,1-2.34-5.53c-.88-2.18-2-3.92-2-6.39.12-5.14,2.58-9.69,4.77-14.2,5.37-11.06,10.16-22.39,15.44-33.49,2.51-5.27,4-11.09,3.28-16.95C487.26,269.84,485.85,261,481.18,261.57Z"/><path class="cls-5" d="M485.54,368.57c-.46-.41-3.59-3.12-4.06-3-7.79.19-15.77,6.59-19.27,13.41h.53a11.71,11.71,0,0,1,5.35.87,15.43,15.43,0,0,0,5.56,1.61,6.4,6.4,0,0,1,.93-4.3c1.22-1.92,3.8-3.08,5.77-4.1a20.72,20.72,0,0,1,3.94-1.54c.59-.16,3.43-1.09,3.91-.66Z"/><path class="cls-26" d="M486.8,260.42l-21.14,12.86c-1.6,1-.14,3.49,1.47,2.51l21.14-12.86c1.6-1,.14-3.49-1.47-2.51Z"/><path class="cls-26" d="M457.64,287.57l-11.11,28.68c-.68,1.75,2.13,2.5,2.81.77l11.11-28.68c.68-1.75-2.13-2.5-2.81-.77Z"/><path class="cls-5" d="M555.85,202.07c0,21.47-17,65-38,65s-38-43.54-38-65,17-38.88,38-38.88S555.85,180.59,555.85,202.07Z"/><path class="cls-5" d="M515.46,265.73V278c0,2.81,4.36,2.81,4.36,0V265.73c0-2.81-4.36-2.81-4.36,0Z"/><path class="cls-14" d="M533.29,255.43a2.52,2.52,0,0,1-1.29,2.14c-3.06,1.83-10.74,6.21-14.13,6.22s-11.11-4.38-14.14-6.22a2.52,2.52,0,0,1-1.28-2.13V227.29h30.84Z"/><path class="cls-15" d="M502.45,238.51c2.05,5.7,8.18,9.84,15.42,9.84h0c7.24,0,13.37-4.14,15.42-9.84V227.29H502.45Z"/><path class="cls-14" d="M493.52,215c1.54,4.9.85,9-1.55,9.1s-5.59-3.75-7.13-8.65-.85-9,1.55-9.1S492,210.11,493.52,215Z"/><path class="cls-27" d="M486,212.11a1.52,1.52,0,0,1,1.75-2.15c1,.27,1.47,1.48,1.75,2.51l.95,3.58a.54.54,0,0,0-.7-.14,1.07,1.07,0,0,0-.46.62,2.22,2.22,0,0,0,2.15,2.94"/><path class="cls-14" d="M542.21,215c-1.54,4.9-.85,9,1.55,9.1s5.59-3.75,7.13-8.65.85-9-1.55-9.1S543.75,210.11,542.21,215Z"/><path class="cls-27" d="M550.13,212.11a1.52,1.52,0,0,0-1.75-2.15c-1,.27-1.47,1.48-1.75,2.51l-.95,3.58a.54.54,0,0,1,.7-.14,1.07,1.07,0,0,1,.46.62,2.22,2.22,0,0,1-2.15,2.94"/><path class="cls-5" d="M544.77,216l2.57-12.63a29.83,29.83,0,0,0-29.83-29.83h0a29.83,29.83,0,0,0-29.83,29.83L490.25,216Z"/><path class="cls-14" d="M544.95,200.35c-.1-6.55-7.26-10.53-13.09-7.56-3.2,1.63-8.44,2.7-14.35,2.7s-11.15-1.06-14.35-2.7c-5.83-3-13,1-13.09,7.56q0,.09,0,.17v16.41a27.44,27.44,0,0,0,27.44,27.44h0A27.44,27.44,0,0,0,545,216.94V200.52Q545,200.44,544.95,200.35Z"/><path class="cls-27" d="M513,211.11l2.21,1.87a1.51,1.51,0,0,1,.65,1.52c0,3.93.05,8.26.05,8.26"/><path class="cls-5" d="M490.07,205v10.13a12.43,12.43,0,0,0,2.25,3.17,15.77,15.77,0,0,0,13.47,4.35c6.18-1.15,8.72-5.56,9.5-10.76a2.26,2.26,0,0,1,2.23-1.95h0a2.26,2.26,0,0,1,2.23,1.95c.78,5.21,3.32,9.61,9.5,10.76a15.77,15.77,0,0,0,13.47-4.35,12.44,12.44,0,0,0,2.25-3.17V205Z"/><ellipse class="cls-13" cx="503.38" cy="213.76" rx="2.02" ry="3.29"/><path class="cls-28" d="M498.34,208.37a23.37,23.37,0,0,0,9.89,2.2"/><ellipse class="cls-13" cx="531.14" cy="213.76" rx="2.02" ry="3.29"/><path class="cls-28" d="M536.94,208.37a23.37,23.37,0,0,1-9.89,2.2"/><path class="cls-13" d="M508.56,227.88c.14,4.17,4.1,7.52,9,7.52s8.87-3.35,9-7.52Z"/><path class="cls-29" d="M519.39,230.87v.76h5.9a7.43,7.43,0,0,0,.48-.76Z"/><path class="cls-29" d="M514.78,230.87h-5.4a7.44,7.44,0,0,0,.48.76h4.92Z"/><path class="cls-30" d="M549.34,206.36a4.25,4.25,0,0,0-2.9,1.39l.89-4.38a29.83,29.83,0,0,0-29.83-29.83h0a29.83,29.83,0,0,0-29.83,29.83l.75,3.7a3.43,3.43,0,0,0-2-.7c-2.4.12-3.09,4.2-1.55,9.1a19.78,19.78,0,0,0,2.41,5.06c6.94-6.54,17.9-10.77,30.25-10.77,12.62,0,23.78,4.42,30.69,11.21a19.54,19.54,0,0,0,2.7-5.49C552.43,210.56,551.74,206.48,549.34,206.36Z"/><g class="cls-31"><path class="cls-32" d="M497.45,235.06a24.58,24.58,0,0,0,8.86,6.54c.85.37,1.59-.88.73-1.26a23.66,23.66,0,0,1-8.56-6.32c-.61-.71-1.64.32-1,1Z"/></g><g class="cls-31"><path class="cls-32" d="M527.53,242.08a20.33,20.33,0,0,0,7.33-4.66.73.73,0,0,0-1-1,18.61,18.61,0,0,1-6.69,4.29c-.87.32-.49,1.73.39,1.4Z"/></g><path class="cls-22" d="M517.87,193.23c17.68,0,32.54,8.65,36.77,20.36a63.94,63.94,0,0,0,1.21-11.5c0-21.49-17-44.81-38-44.81s-38,23.32-38,44.81a63.94,63.94,0,0,0,1.21,11.5C485.32,201.88,500.18,193.23,517.87,193.23Z"/><g class="cls-31"><path class="cls-32" d="M528.18,193a40.29,40.29,0,0,1,20.41,9.42c.71.61,1.74-.42,1-1a41.71,41.71,0,0,0-21.05-9.8c-.92-.14-1.31,1.26-.39,1.4Z"/></g><g class="cls-31"><path class="cls-32" d="M490.93,200.87a46.25,46.25,0,0,1,19.31-7.69c.92-.14.53-1.55-.39-1.4a47.23,47.23,0,0,0-19.66,7.83c-.77.53,0,1.79.73,1.26Z"/></g><path class="cls-26" d="M523.46,161.54a35.91,35.91,0,0,1,21.33,17.29c.9,1.64,3.42.17,2.51-1.47a38.89,38.89,0,0,0-23.07-18.63c-1.8-.54-2.56,2.27-.77,2.81Z"/><path class="cls-33" d="M155.17,310.22a15.89,15.89,0,0,0,4.3-4.49,5.06,5.06,0,0,1,.21.52c1.07,3.13,3.14,7.65,1.58,10.87a3.28,3.28,0,0,1-5.43,1.83l-.06-.07c-1.69-.9-2.55-2.71-3.27-4.55-.31-.79-.6-1.58-.89-2.38A14.24,14.24,0,0,0,155.17,310.22Z"/><path class="cls-34" d="M502.74,364.71c-24-46.94-51.43-92.78-87.78-131.33-34-36.09-76.19-66.41-123.65-81.89-23.31-7.61-48.3-11.35-72.82-9.72-22.55,1.5-44.16,7.3-64.89,16.14-38.28,16.34-74.07,44.47-90.29,83.75-8.54,20.68-13,49.41-1.51,69.83C68.33,323.11,80.67,330,94,328.58c16.43-1.78,31.16-10.3,45.22-18.4a14,14,0,0,0,1.19-.77,1.8,1.8,0,0,0,.28.53c3.39,4.29,10.49,3,14.44.28a16.19,16.19,0,0,0,6.51-9.76,11.19,11.19,0,0,1,2.62,4.16c1.27,3.71.43,7.38.36,11.23-.05,2.91,3.41,3.49,5.22,1.93,4.34-3.72,4.44-11.13,2.41-16.13a21.47,21.47,0,0,0-8.83-10.44c-5.48-3.17-12.95-7.12-16-7.74a18.91,18.91,0,0,0-10.64.46c-5.1,1.73-9.47,4.77-13.78,7.9-4.72,3.42-10.64,6.1-16,8.43-5.14,2.25-12,5.19-17.69,4.5-8.71-1-9.94-13.68-10.11-20.42-.62-25,10.79-48.67,27.66-66.65,15.91-17,36.2-29.43,57.47-38.51l.05,0c15.6-6.65,35.68-12.18,54-13.4a174,174,0,0,1,63.38,7.89c42,13,79.29,39.39,110,70.4,38,38.31,65.68,85.06,90.12,132.78,3,5.77,11,7.45,16.42,4.31C504.29,377.71,505.7,370.5,502.74,364.71Z"/><path class="cls-35" d="M502.74,364.71c-24-46.94-51.43-92.78-87.78-131.33-34-36.09-76.19-66.41-123.65-81.89-23.31-7.61-48.3-11.35-72.82-9.72-22.55,1.5-44.16,7.3-64.89,16.14-38.28,16.34-74.07,44.47-90.29,83.75-8.54,20.68-13,49.41-1.51,69.83C68.33,323.11,80.67,330,94,328.58c16.43-1.78,31.16-10.3,45.22-18.4a14,14,0,0,0,1.19-.77,1.8,1.8,0,0,0,.28.53c3.39,4.29,10.49,3,14.44.28a16.19,16.19,0,0,0,6.51-9.76,11.19,11.19,0,0,1,2.62,4.16c1.27,3.71.43,7.38.36,11.23-.05,2.91,3.41,3.49,5.22,1.93,4.34-3.72,4.44-11.13,2.41-16.13a21.47,21.47,0,0,0-8.83-10.44c-5.48-3.17-12.95-7.12-16-7.74a18.91,18.91,0,0,0-10.64.46c-5.1,1.73-9.47,4.77-13.78,7.9-4.72,3.42-10.64,6.1-16,8.43-5.14,2.25-12,5.19-17.69,4.5-8.71-1-9.94-13.68-10.11-20.42-.62-25,10.79-48.67,27.66-66.65,15.91-17,36.2-29.43,57.47-38.51l.05,0c15.6-6.65,35.68-12.18,54-13.4a174,174,0,0,1,63.38,7.89c42,13,79.29,39.39,110,70.4,38,38.31,65.68,85.06,90.12,132.78,3,5.77,11,7.45,16.42,4.31C504.29,377.71,505.7,370.5,502.74,364.71Z"/><path class="cls-36" d="M502.74,364.71c-24-46.94-51.43-92.78-87.78-131.33-34-36.09-76.19-66.41-123.65-81.89-23.31-7.61-48.3-11.35-72.82-9.72-22.55,1.5-44.16,7.3-64.89,16.14-38.28,16.34-74.07,44.47-90.29,83.75-8.54,20.68-13,49.41-1.51,69.83C68.33,323.11,80.67,330,94,328.58c16.43-1.78,31.16-10.3,45.22-18.4a14,14,0,0,0,1.19-.77,1.8,1.8,0,0,0,.28.53c3.39,4.29,10.49,3,14.44.28a16.19,16.19,0,0,0,6.51-9.76,11.19,11.19,0,0,1,2.62,4.16c1.27,3.71.43,7.38.36,11.23-.05,2.91,3.41,3.49,5.22,1.93,4.34-3.72,4.44-11.13,2.41-16.13a21.47,21.47,0,0,0-8.83-10.44c-5.48-3.17-12.95-7.12-16-7.74a18.91,18.91,0,0,0-10.64.46c-5.1,1.73-9.47,4.77-13.78,7.9-4.72,3.42-10.64,6.1-16,8.43-5.14,2.25-12,5.19-17.69,4.5-8.71-1-9.94-13.68-10.11-20.42-.62-25,10.79-48.67,27.66-66.65,15.91-17,36.2-29.43,57.47-38.51l.05,0c15.6-6.65,35.68-12.18,54-13.4a174,174,0,0,1,63.38,7.89c42,13,79.29,39.39,110,70.4,38,38.31,65.68,85.06,90.12,132.78,3,5.77,11,7.45,16.42,4.31C504.29,377.71,505.7,370.5,502.74,364.71Z"/><path class="cls-37" d="M155.72,296.9a12.85,12.85,0,0,1-13.13,11.53c-3.13-.09-6.12-1.06-7.74-3.74"/><path class="cls-37" d="M146.64,292.71a13.54,13.54,0,0,1-7,10.69,8.43,8.43,0,0,1-6.48.9,5.74,5.74,0,0,1-3.29-2.93,2.7,2.7,0,0,1,2.09-3.7,5.3,5.3,0,0,0,4.48-5.06"/><g class="cls-38"><rect class="cls-39" x="145.14" y="303.95" width="41.34" height="55.55" rx="5.1" ry="5.1" transform="translate(383.09 31.19) rotate(62.42)"/><circle class="cls-40" cx="178.82" cy="325.72" r="7.22" transform="translate(-130.47 119.78) rotate(-27.58)"/><path class="cls-13" d="M177.39,329.26l-2.29-4.39.54-.28a2.48,2.48,0,0,1,3.34,1h0a2.48,2.48,0,0,1-1,3.34Z"/><circle class="cls-13" cx="180.11" cy="325.04" r="1.46" transform="translate(-130 120.3) rotate(-27.57)"/><path class="cls-40" d="M149.64,347.3,144,336.46a2.49,2.49,0,0,1,1.05-3.36h0a2.49,2.49,0,0,1,3.36,1.05L154.05,345a2.49,2.49,0,0,1-1.05,3.36h0A2.49,2.49,0,0,1,149.64,347.3Z"/><rect class="cls-36" x="160.08" y="321.24" width="4.97" height="24.35" transform="translate(-135.88 113.13) rotate(-27.58)"/><path class="cls-40" d="M157.52,326.11l-.5-1a.19.19,0,0,1,.08-.26h0a.72.72,0,0,1,1,.3v0a.72.72,0,0,1-.3,1h0A.19.19,0,0,1,157.52,326.11Z"/><circle class="cls-40" cx="158.41" cy="325.04" r="0.43" transform="translate(-132.45 110.22) rotate(-27.57)"/><rect class="cls-36" x="153.26" y="324.8" width="4.97" height="24.35" transform="translate(-138.3 110.38) rotate(-27.58)"/><rect class="cls-40" x="150.14" y="328.47" width="1.59" height="0.91" transform="translate(372.63 42.87) rotate(62.43)"/><path class="cls-40" d="M151.54,329.51l-.2-.38.25-.13a.36.36,0,0,0-.34-.64l-.25.13-.2-.38L151,328a.79.79,0,0,1,.74,1.41Z"/><line class="cls-36" x1="163.54" y1="324.03" x2="170.83" y2="337.98"/><line class="cls-36" x1="164.04" y1="318.91" x2="175.32" y2="340.5"/></g><rect class="cls-39" x="145.14" y="303.95" width="41.34" height="55.55" rx="5.1" ry="5.1" transform="translate(383.09 31.19) rotate(62.42)"/><path class="cls-41" d="M52.35,306.48a37,37,0,0,0,23.78,26.17"/><path class="cls-41" d="M47.32,307.66a42.19,42.19,0,0,0,27.16,29.89"/><path class="cls-41" d="M44.18,262.19A126.62,126.62,0,0,1,62,212"/><path class="cls-41" d="M49.3,262.85a121.45,121.45,0,0,1,17.06-48.18"/><path class="cls-41" d="M87.7,282.36a55.17,55.17,0,0,1,4.19-20.94"/><path class="cls-41" d="M92.86,282.37a50,50,0,0,1,3.8-19"/><path class="cls-41" d="M119.18,133.86a166.21,166.21,0,0,1,44.53-20.35"/><path class="cls-41" d="M122,138.18a161.06,161.06,0,0,1,43.14-19.72"/><path class="cls-41" d="M329.24,126.49a114.34,114.34,0,0,1,37.67,19.11"/><path class="cls-41" d="M327.8,131.44a109.18,109.18,0,0,1,36,18.25"/><path class="cls-41" d="M344.21,219a170.2,170.2,0,0,1,24.56,21.8"/><path class="cls-41" d="M341.17,223.13A165,165,0,0,1,365,244.27"/><path class="cls-41" d="M436.77,219.3a173.61,173.61,0,0,1,32,39.8"/><path class="cls-41" d="M433.26,223.08a168.44,168.44,0,0,1,31,38.61"/><polygon class="cls-42" points="633.11 237.62 395.8 237.62 456.17 351.85 572.73 351.85 633.11 237.62"/><path class="cls-17" d="M460.18,410.07c0,.14-.07.28-.08.42a6.8,6.8,0,0,0,6.77,7.41H562a6.8,6.8,0,0,0,6.77-7.41c0-.14-.06-.28-.08-.42Z"/><path class="cls-18" d="M561.74,414.49H467.16A7.25,7.25,0,0,1,460.1,408L454.8,349c-.4-4.43,2.53-8.06,6.54-8.06H567.56c4,0,6.93,3.63,6.54,8.06L568.8,408A7.25,7.25,0,0,1,561.74,414.49Z"/><path class="cls-19" d="M567.56,341H499l69.21,69.21a7,7,0,0,0,.61-2.22L574.1,349C574.5,344.6,571.57,341,567.56,341Z"/><path class="cls-13" d="M521.51,379.86a7.08,7.08,0,1,1-7.06-7.56A7.28,7.28,0,0,1,521.51,379.86Z"/><path class="cls-14" d="M301.09,255.43a2.52,2.52,0,0,1-1.29,2.14c-3.06,1.83-10.74,6.21-14.13,6.22s-11.11-4.38-14.14-6.22a2.52,2.52,0,0,1-1.28-2.13V227.29h30.84Z"/><path class="cls-15" d="M270.25,238.51c2.05,5.7,8.18,9.84,15.42,9.84h0c7.24,0,13.37-4.14,15.42-9.84V227.29H270.25Z"/><rect class="cls-39" x="128.97" y="206.93" width="99.85" height="35.29"/><circle class="cls-40" cx="153.98" cy="225.72" r="13.84"/><path class="cls-13" d="M160.09,231.59l-.38-1A3.22,3.22,0,0,0,158,228.8l-2.54-1.12a.78.78,0,0,1-.49-.7v-.66a5.51,5.51,0,0,0,1.95-3.87,2.91,2.91,0,0,0-5.79,0,5.51,5.51,0,0,0,1.95,3.87V227a.78.78,0,0,1-.49.7L150,228.8a3.22,3.22,0,0,0-1.75,1.78l-.38,1Z"/><circle class="cls-13" cx="167.97" cy="213.9" r="2.02"/><rect class="cls-13" x="176.87" y="217.29" width="40.78" height="6.84"/><rect class="cls-13" x="176.87" y="229.32" width="27.15" height="3.75"/><rect class="cls-39" x="195.08" y="93.67" width="99.85" height="35.29"/><circle class="cls-40" cx="220.1" cy="112.46" r="13.84"/><path class="cls-13" d="M226.2,118.33l-.38-1a3.22,3.22,0,0,0-1.75-1.78l-2.54-1.12a.78.78,0,0,1-.49-.7v-.66a5.51,5.51,0,0,0,1.95-3.87,2.91,2.91,0,0,0-5.79,0,5.51,5.51,0,0,0,1.95,3.87v.66a.78.78,0,0,1-.49.7l-2.54,1.12a3.22,3.22,0,0,0-1.75,1.78l-.38,1Z"/><circle class="cls-13" cx="234.08" cy="100.64" r="2.02"/><rect class="cls-13" x="242.98" y="104.03" width="27.29" height="6.84"/><rect class="cls-13" x="242.98" y="116.06" width="37.82" height="3.75"/><rect class="cls-43" x="385.22" y="103.06" width="69.59" height="92.96"/><circle class="cls-40" cx="419.99" cy="139.96" r="22.33"/><path class="cls-13" d="M432.28,152.77a1,1,0,0,1-.94-.65l-.77-2a5.52,5.52,0,0,0-3-3l-5.12-2.25a2.58,2.58,0,0,1-1.58-2.33v-1.33a1,1,0,0,1,.44-.83c1.93-1.3,3.48-4.87,3.48-7,0-2.34-2.17-4.24-4.83-4.24s-4.83,1.9-4.83,4.24c0,2.08,1.55,5.65,3.48,7a1,1,0,0,1,.44.83v1.33a2.58,2.58,0,0,1-1.58,2.33l-5.12,2.25a5.52,5.52,0,0,0-3,3l-.77,2a1,1,0,0,1-1.87-.71l.77-2a7.53,7.53,0,0,1,4-4.14L416.7,143a.58.58,0,0,0,.39-.5v-.83a12.42,12.42,0,0,1-3.92-8.28c0-3.44,3.06-6.24,6.83-6.24s6.83,2.8,6.83,6.24a12.42,12.42,0,0,1-3.92,8.28v.83a.58.58,0,0,0,.39.5l5.12,2.25a7.53,7.53,0,0,1,4,4.14l.77,2a1,1,0,0,1-.94,1.35Z"/><rect class="cls-13" x="397.14" y="167.12" width="45.76" height="6.13"/><rect class="cls-13" x="406.13" y="176.25" width="27.78" height="3.68"/><rect class="cls-43" x="565.6" y="201.97" width="69.59" height="92.96"/><circle class="cls-40" cx="600.37" cy="238.87" r="22.33"/><path class="cls-13" d="M612.66,251.68a1,1,0,0,1-.93-.65l-.77-2a5.52,5.52,0,0,0-3-3l-5.12-2.25a2.58,2.58,0,0,1-1.58-2.33v-1.33a1,1,0,0,1,.44-.83c1.93-1.3,3.48-4.87,3.48-7,0-2.34-2.17-4.24-4.83-4.24s-4.83,1.9-4.83,4.24c0,2.08,1.55,5.65,3.48,7a1,1,0,0,1,.44.83v1.33a2.58,2.58,0,0,1-1.58,2.33L592.76,246a5.52,5.52,0,0,0-3,3l-.77,2a1,1,0,0,1-1.87-.71l.77-2a7.53,7.53,0,0,1,4-4.14l5.12-2.25a.58.58,0,0,0,.39-.5v-.83a12.42,12.42,0,0,1-3.92-8.28c0-3.44,3.06-6.24,6.83-6.24s6.83,2.8,6.83,6.24a12.42,12.42,0,0,1-3.92,8.28v.83a.58.58,0,0,0,.39.5l5.12,2.25a7.53,7.53,0,0,1,4,4.14l.77,2a1,1,0,0,1-.94,1.35Z"/><rect class="cls-13" x="577.52" y="266.03" width="45.76" height="6.13"/><rect class="cls-13" x="586.51" y="275.16" width="27.78" height="3.68"/><path class="cls-14" d="M261.32,215c1.54,4.9.85,9-1.55,9.1s-5.59-3.75-7.13-8.65-.85-9,1.55-9.1S259.78,210.11,261.32,215Z"/><path class="cls-27" d="M253.81,212.11a1.52,1.52,0,0,1,1.75-2.15c1,.27,1.47,1.48,1.75,2.51l.95,3.58a.54.54,0,0,0-.7-.14,1.07,1.07,0,0,0-.46.62,2.22,2.22,0,0,0,2.15,2.94"/><path class="cls-14" d="M310,215c-1.54,4.9-.85,9,1.55,9.1s5.59-3.75,7.13-8.65.85-9-1.55-9.1S311.55,210.11,310,215Z"/><path class="cls-27" d="M317.93,212.11a1.52,1.52,0,0,0-1.75-2.15c-1,.27-1.47,1.48-1.75,2.51l-.95,3.58a.54.54,0,0,1,.7-.14,1.07,1.07,0,0,1,.46.62,2.22,2.22,0,0,1-2.15,2.94"/><path class="cls-14" d="M312.84,202.73a30.29,30.29,0,0,0-3.51-13.62,27.62,27.62,0,0,0-44.64-4.74c-8,9-6.82,21.44-6.82,32.58a27.44,27.44,0,0,0,54.89,0C312.75,212.33,313.1,207.48,312.84,202.73Z"/><path class="cls-15" d="M309.33,189.1a27.62,27.62,0,0,0-44.64-4.74c-7.57,8.5-6.93,16.09-6.83,26.75,1.86-.79,1.14-2.35,2.32-4.91s3.33-3.5,5.44-5.1a6,6,0,0,0,1.55-6.19c1.17,3.28,7.44,9.34,11.09,6.25,1.28-1.08,1.42-3.4,0-4.33,1,.71,1.91,1.87,2.91,2.67a27.55,27.55,0,0,0,3.57,2.38c7.95,4.45,15.85,5.17,24.7,3.65.45,2.17,1,.34,1.63,2.45.36,1.15.66,2.87,1.69,2.33a67,67,0,0,0,.06-7.58A30.29,30.29,0,0,0,309.33,189.1Z"/><path class="cls-22" d="M316.22,195.55a52.19,52.19,0,0,0-1.88-13.25,58.16,58.16,0,0,0-2.21-6.33c-.42-1-.63-1.25-.11-2.16s1.37-.91,1.22-2.13a4.75,4.75,0,0,0-2-2.85,29.56,29.56,0,0,0-12.35-6c-4.54-1-9.3-2.06-14-1.67-1.48.12-3.78,0-5,.87,1.15-.83.49-2.86-.82-3.4a5.47,5.47,0,0,0-4.11.47,34.6,34.6,0,0,0-11.53,8c-.69.72-7.95,10.14-5.43,10.38a4.5,4.5,0,0,0-2.81.6c-4.23,2.6-3.23,10.5-2.86,14.51a61.64,61.64,0,0,0,1.83,10.33q.68,2.54,1.57,5,.46,1.28,1,2.55c.23.56.36,2.24.92,2.12,2.12-.46,1.3-6.34,2.51-9,1.12-2.45,3.33-3.5,5.44-5.1a6,6,0,0,0,1.55-6.19c1.17,3.28,7.44,9.34,11.09,6.25,1.28-1.08,1.42-3.4,0-4.33,1,.71,1.91,1.87,2.91,2.67a27.56,27.56,0,0,0,3.57,2.38c7.95,4.45,15.85,5.17,24.7,3.65a66.36,66.36,0,0,0,1.63,6.45c.42,1.33.75,3.41,2.21,1.92,1.16-1.19,1.58-3.32,1.9-4.89A51,51,0,0,0,316.22,195.55Z"/><path class="cls-24" d="M314.33,182.31a58.16,58.16,0,0,0-2.21-6.33c-.42-1-.63-1.25-.11-2.16s1.37-.91,1.22-2.13a4.75,4.75,0,0,0-2-2.85,29.56,29.56,0,0,0-12.35-6c-4.54-1-9.3-2.06-14-1.67-1.48.12-3.78,0-5,.87,1.15-.83.49-2.86-.82-3.4a5.47,5.47,0,0,0-4.11.47,34.6,34.6,0,0,0-11.53,8c-.69.72-8,10.14-5.43,10.38a4.5,4.5,0,0,0-2.81.6,7.09,7.09,0,0,0-2.91,5c-.14.74,3.49-.18,3.76-.33a9.13,9.13,0,0,0,2.78-2.43,2.74,2.74,0,0,0,2.61,2.37,4.48,4.48,0,0,0,3.4-1.54,13.28,13.28,0,0,0,2.05-3.25c-.51,1,0,3.25.28,4.3a19.7,19.7,0,0,0,1.37,3.73c1,2.14,2.78,4.51,5.14,5.22,3.78,1.15,3.64-7.74,3.78-9.64a16.34,16.34,0,0,0,6.36,3.75c3.93,1.23,6.76-1.68,6.68-5.66a17.82,17.82,0,0,0,11.25,5.59c1.34.13,4,.22,5.2-.69,1.34-1.06.85-3.73.63-5.16a.5.5,0,0,1,.91-.39,8.32,8.32,0,0,0,6.07,4.44C314.49,183,314.42,182.64,314.33,182.31Z"/><path class="cls-27" d="M280.76,211.11,283,213a1.51,1.51,0,0,1,.65,1.52c0,3.93.05,8.26.05,8.26"/><ellipse class="cls-5" cx="271.19" cy="213.76" rx="2.02" ry="3.29"/><ellipse class="cls-5" cx="298.94" cy="213.76" rx="2.02" ry="3.29"/><path class="cls-5" d="M288.68,235.4c3.33,0,4.68-4.45,1.82-6.15a10.27,10.27,0,0,0-10.25,0c-2.86,1.7-1.51,6.15,1.82,6.15Z"/><path class="cls-44" d="M296.3,203.5a20.36,20.36,0,0,0,8.85,2.73"/><path class="cls-44" d="M274.15,203.5a20.36,20.36,0,0,1-8.85,2.73"/></g></g></svg>