<svg xmlns="http://www.w3.org/2000/svg" xmlns:xlink="http://www.w3.org/1999/xlink" viewBox="0 0 2761.53 1196.73"><defs><style>.cls-1{fill:#3665af;}.cls-2{isolation:isolate;}.cls-3{fill:#223e7d;}.cls-4{fill:#b6ceeb;}.cls-5{fill:#adddf6;}.cls-6{fill:#436fb5;}.cls-7{fill:#435da9;}.cls-8{fill:#6a91cb;}.cls-9{fill:#2654a4;}.cls-10{fill:#fff;}.cls-11{fill:#5ca8dc;}.cls-12{fill:#cfd8e7;}.cls-13{fill:#336cb4;}.cls-14{fill:#bbc4d2;}.cls-15{fill:#e3ebf7;}.cls-16{fill:#568dc9;}.cls-17{fill:#e87c24;}.cls-18{fill:#b16027;}.cls-19{fill:#c96c28;}.cls-20{fill:#f89c38;}.cls-21{fill:#ffd045;}.cls-22{fill:#1d498b;}.cls-23{fill:#0d203d;}.cls-24{fill:#0d213f;}.cls-25{mix-blend-mode:soft-light;}.cls-26{fill:#f7a58d;}.cls-27{fill:#b55c42;}.cls-28{fill:#663326;}.cls-29{fill:#7e3f2e;}.cls-30{clip-path:url(#clip-path);}.cls-31{fill:#e6f5fc;}.cls-32{fill:#f78c6d;}.cls-33{fill:#f7a594;}.cls-34{fill:#13305c;}.cls-35{fill:#1d498c;}.cls-36{fill:#e6836f;}.cls-37{fill:#4d261c;}.cls-38{fill:#f7bd0c;}.cls-39{fill:#bf5847;}.cls-40{fill:#4f241d;}.cls-41{fill:#231f20;}.cls-42{fill:#d9ffff;}.cls-43{fill:#007880;}.cls-44{fill:#008f99;}</style><clipPath id="clip-path" transform="translate(-259.82 -417.36)"><path id="_Clipping_Path_" data-name="&lt;Clipping Path&gt;" class="cls-1" d="M2121.2,897s-23.86-43.25-122.22-62.84-124.3,2.06-136.46,11.84c-11.79-7.38-13-44.89,4.6-71.58,29.73-45.06,270.56-12,276.65,56.08C2144.07,865.32,2134.42,884,2121.2,897Z"/></clipPath></defs><title>2</title><g class="cls-2"><g id="cloud"><path class="cls-3" d="M3014.6,1614.09h-2748a6.76,6.76,0,0,1-6.76-6.76h0a6.76,6.76,0,0,1,6.76-6.76h2748a6.76,6.76,0,0,1,6.76,6.76h0A6.76,6.76,0,0,1,3014.6,1614.09Z" transform="translate(-259.82 -417.36)"/></g><g id="laptops"><path class="cls-4" d="M2029.64,1568.47H2904a23.48,23.48,0,0,0,23-21.3l43.14-542.6a19.39,19.39,0,0,0-19.61-21.3H2076.16a23.48,23.48,0,0,0-23,21.3L2010,1547.16A19.39,19.39,0,0,0,2029.64,1568.47Z" transform="translate(-259.82 -417.36)"/><path d="M2904.31,1564.51a19.14,19.14,0,0,0,18.73-17.35l43.14-542.6a15.8,15.8,0,0,0-16-17.35H2075.85a19.14,19.14,0,0,0-18.73,17.35L2014,1547.16a15.8,15.8,0,0,0,16,17.35Z" transform="translate(-259.82 -417.36)"/><polygon class="cls-5" points="1780.66 1124.72 2636.6 1124.72 2679.15 589.56 1823.2 589.56 1780.66 1124.72"/><path class="cls-6" d="M1867.27,1568.52v14.24a10.88,10.88,0,0,0,.14,2.16,18.53,18.53,0,0,0,18.41,16.4H2902.89a18.53,18.53,0,0,0,18.41-16.4,10.88,10.88,0,0,0,.14-2.16v-14.24Z" transform="translate(-259.82 -417.36)"/><path class="cls-7" d="M1867.41,1584.91a18.53,18.53,0,0,0,18.41,16.4H2902.89a18.53,18.53,0,0,0,18.41-16.4Z" transform="translate(-259.82 -417.36)"/><path class="cls-8" d="M1867.27,1568.52v14.24a10.88,10.88,0,0,0,.14,2.16,18.53,18.53,0,0,0,18.41,16.4h647.55a18.64,18.64,0,0,0,18.41-16.4c0-.72.14-1.44.14-2.16v-14.24Z" transform="translate(-259.82 -417.36)"/><path class="cls-7" d="M1867.41,1584.91a18.53,18.53,0,0,0,18.41,16.4h647.55a18.64,18.64,0,0,0,18.41-16.4Z" transform="translate(-259.82 -417.36)"/><path class="cls-9" d="M2572,1289.39l-2.62-9.15a8.72,8.72,0,0,0-9.8-6.08l-81.48,15.38a7,7,0,0,0-5.5,9l46.23,161.69,210.77-39.77L2686,1267.88Z" transform="translate(-259.82 -417.36)"/><polygon class="cls-10" points="2436.49 854.42 2229.81 893.42 2258.98 1042.84 2468.72 1003.26 2436.49 854.42"/><path class="cls-11" d="M2729.57,1420.43,2518.8,1460.2l-19.14-149.38a8,8,0,0,1,6.63-9l192.89-36.4a10,10,0,0,1,11.59,8.34Z" transform="translate(-259.82 -417.36)"/><rect class="cls-12" x="2608.18" y="1322.07" width="164.76" height="125.22" transform="matrix(-0.06, 1, -1, -0.06, 3983.34, -1629.98)"/><rect class="cls-13" x="2615.98" y="1329.76" width="149.16" height="109.83" transform="translate(3983.34 -1629.98) rotate(93.64)"/><polygon class="cls-14" points="2387.61 899.39 2381.24 999.65 2437.46 948.33 2387.61 899.39"/><polygon class="cls-14" points="2384.72 944.98 2379.36 1029.22 2425.85 986.4 2384.72 944.98"/><circle class="cls-14" cx="2706.9" cy="1397.78" r="11.63" transform="translate(880.37 3593.18) rotate(-86.36)"/><rect class="cls-15" x="2670.35" y="1319.27" width="164.76" height="125.22" transform="translate(5135.98 -617.05) rotate(122.45)"/><rect class="cls-16" x="2678.15" y="1326.96" width="149.16" height="109.83" transform="translate(5135.98 -617.05) rotate(122.45)"/><polygon class="cls-15" points="2487.86 884.21 2433.95 968.99 2507.95 951.12 2487.86 884.21"/><polygon class="cls-15" points="2463.35 922.76 2418.06 994 2479.43 978.88 2463.35 922.76"/><circle class="cls-15" cx="2760.73" cy="1401.23" r="11.63" transform="matrix(0.54, -0.84, 0.84, 0.54, -162.77, 2561.8)"/><rect class="cls-17" x="2284.21" y="995.85" width="297.22" height="129.42"/><rect class="cls-18" x="2207.61" y="995.85" width="76.59" height="129.42"/><polygon class="cls-19" points="2581.42 995.85 2284.21 995.85 2335.67 945.35 2632.88 945.35 2581.42 995.85"/><polygon class="cls-17" points="2243.31 1068.39 2166.72 1068.39 2207.61 995.85 2284.21 995.85 2243.31 1068.39"/><rect class="cls-20" x="2501.6" y="1087.37" width="66.27" height="29.04"/><path class="cls-4" d="M1210.5,1568.16H336.14a23.48,23.48,0,0,1-23-21.3L270,1004.25A19.39,19.39,0,0,1,289.62,983H1164a23.48,23.48,0,0,1,23,21.3l43.14,542.6A19.39,19.39,0,0,1,1210.5,1568.16Z" transform="translate(-259.82 -417.36)"/><path d="M335.83,1564.2a19.14,19.14,0,0,1-18.73-17.35L274,1004.25a15.8,15.8,0,0,1,16-17.35h874.36a19.14,19.14,0,0,1,18.73,17.35l43.14,542.6a15.8,15.8,0,0,1-16,17.35Z" transform="translate(-259.82 -417.36)"/><polygon class="cls-5" points="939.83 1124.42 83.89 1124.42 41.35 589.25 897.29 589.25 939.83 1124.42"/><path class="cls-6" d="M1372.87,1568.21v14.24a10.88,10.88,0,0,1-.14,2.16,18.53,18.53,0,0,1-18.41,16.4H337.25a18.53,18.53,0,0,1-18.41-16.4,10.88,10.88,0,0,1-.14-2.16v-14.24Z" transform="translate(-259.82 -417.36)"/><path class="cls-7" d="M1372.73,1584.6a18.53,18.53,0,0,1-18.41,16.4H337.25a18.53,18.53,0,0,1-18.41-16.4Z" transform="translate(-259.82 -417.36)"/><path class="cls-8" d="M1372.87,1568.21v14.24a10.88,10.88,0,0,1-.14,2.16,18.53,18.53,0,0,1-18.41,16.4H706.77a18.64,18.64,0,0,1-18.41-16.4c0-.72-.14-1.44-.14-2.16v-14.24Z" transform="translate(-259.82 -417.36)"/><path class="cls-7" d="M1372.73,1584.6a18.53,18.53,0,0,1-18.41,16.4H706.77a18.64,18.64,0,0,1-18.41-16.4Z" transform="translate(-259.82 -417.36)"/></g><g id="hacker"><path class="cls-21" d="M1997.57,470.08l-81.45,141.07a11,11,0,0,0,9.5,16.45h162.89a11,11,0,0,0,9.5-16.45l-81.45-141.07A11,11,0,0,0,1997.57,470.08Z" transform="translate(-259.82 -417.36)"/><path d="M2088.51,620.63h-162.9a4,4,0,0,1-3.46-6l81.45-141.07a4.09,4.09,0,0,1,6.92,0L2092,614.63a4,4,0,0,1-3.46,6ZM1926.75,616h160.64l-80.32-139.11Zm79.75-140.1h0Zm1.14,0Z" transform="translate(-259.82 -417.36)"/><path d="M2007.3,577.59h0a8.89,8.89,0,0,1-8.87-8.29l-2.73-39.79a11.63,11.63,0,0,1,11.6-12.43h0a11.63,11.63,0,0,1,11.6,12.43l-2.73,39.79A8.89,8.89,0,0,1,2007.3,577.59Z" transform="translate(-259.82 -417.36)"/><circle cx="1747.48" cy="176.05" r="8.78"/><path class="cls-22" d="M1696.15,1162.4c-.07.06,165.38,177.32,269.49,166,83-9,116.81-302.43,112.46-319-27.78-106.08-190.43-50.25-188.54,27.24l3.67,114.63-130-67.54C1727.23,1060.47,1681.14,1122.72,1696.15,1162.4Z" transform="translate(-259.82 -417.36)"/><path class="cls-10" d="M2134.26,1288.35s-3.9,93.66,121,107.32,199-74.15,201-142.45-101.47-121-197.08-82S2153.78,1224,2134.26,1288.35Z" transform="translate(-259.82 -417.36)"/><path class="cls-22" d="M2064,1261c73.53,70.71,157.25,99.73,193.18,103.42,128.86,13.25,199.16-86,146.8-195.82,0,0-101.81-198.4-167.28-230.77-65.5-32.67-314.56,41.14-330,115.55C1898.52,1093.6,1975.72,1176.11,2064,1261Z" transform="translate(-259.82 -417.36)"/><path class="cls-22" d="M2083.83,1299.76c41.66,16,244.42,8.54,312.3-71.2,54.11-63.56-81.67-267.89-171.6-307.85C2124.33,876.17,2074.3,1007,2128.9,1062l92.93,87.55-140.89,40.24C2038.82,1197.63,2042.16,1283.74,2083.83,1299.76Z" transform="translate(-259.82 -417.36)"/><path class="cls-23" d="M2143.88,1307c-11.78,0-22-.38-30.08-1-28.79-2.11-43-11.55-49.79-19.1-7.51-8.31-8-16.09-8.07-16.42a1.17,1.17,0,0,1,2.35-.14h0c0,.07.55,7.41,7.59,15.12,6.55,7.17,20.21,16.16,48.09,18.2,56.12,4.11,216.11-1.79,281.53-77.38a1.18,1.18,0,1,1,1.78,1.54C2340.68,1293.23,2214.38,1307,2143.88,1307Z" transform="translate(-259.82 -417.36)"/><path class="cls-23" d="M2051.85,1224.5l-.2,0a1.17,1.17,0,0,1-1-1.36c.05-.31,5.74-31.38,34.39-37.75,26.14-5.81,123.22-35.7,135.88-39.61l-19.32-36.3a1.17,1.17,0,1,1,2.07-1.1l20.65,38.81-1.36.42c-1.09.34-109.49,33.88-137.43,40.08-27.09,6-32.53,35.56-32.58,35.85A1.18,1.18,0,0,1,2051.85,1224.5Z" transform="translate(-259.82 -417.36)"/><path class="cls-22" d="M1888.36,1018.32c29.76,72.36,222.37,98.46,222.37,98.46s106.12-176.22,100.6-218.9c-11.82-92.48-111.93-100.65-196.5-73.14S1850.87,927.16,1888.36,1018.32Z" transform="translate(-259.82 -417.36)"/><path class="cls-24" d="M2031.73,849.79c52.09-16.33,120.81-8,109.52,32.48-13.68,49.12-91.88,126.33-80.07,169.26,0,0-116.62-25.23-139.82-81.26S1979.65,866.12,2031.73,849.79Z" transform="translate(-259.82 -417.36)"/><path class="cls-25" d="M2071.05,1101.67a1.64,1.64,0,0,1-.41-.05l-8.1-2c-47.12-11.82-111.65-28-142.28-46.32-45.43-27.16-42.67-63.32-41.18-82.75l.16-2.16a1.67,1.67,0,0,1,3.34.24l-.16,2.17c-1.53,20-4.09,53.52,39.56,79.62,30.21,18.06,97.1,34.84,141.37,45.94l8.1,2a1.67,1.67,0,0,1-.41,3.3Z" transform="translate(-259.82 -417.36)"/><path class="cls-25" d="M2129.2,1087a1.68,1.68,0,0,1-1.56-2.28c6.8-17.47,19.75-36.51,33.45-56.66,20.25-29.78,43.2-63.53,49.13-97.79,6.76-39-9.55-73.23-49.85-104.68a1.67,1.67,0,0,1,2.06-2.64c41.36,32.28,58.07,67.57,51.09,107.89-6.06,35-29.23,69-49.66,99.1-13.59,20-26.43,38.88-33.1,56A1.67,1.67,0,0,1,2129.2,1087Z" transform="translate(-259.82 -417.36)"/><path class="cls-26" d="M1860.83,864.68c-17.19,210,220,230.22,259.76,24C2153.52,677,1876.42,657.91,1860.83,864.68Z" transform="translate(-259.82 -417.36)"/><path class="cls-27" d="M1974.67,921.24h-.08c-.62,0-15.12-.78-19-12.33-3.84-11.38,16.1-27.57,18.38-29.38a1.78,1.78,0,0,1,2.21,2.8c-5.66,4.48-19.79,17.8-17.21,25.44,3.12,9.25,15.66,9.9,15.78,9.9a1.78,1.78,0,0,1-.08,3.57Z" transform="translate(-259.82 -417.36)"/><ellipse cx="2033.2" cy="900.14" rx="12.06" ry="7.23" transform="translate(508.13 2311.25) rotate(-79.2)"/><ellipse cx="1911.86" cy="873.34" rx="12.06" ry="7.23" transform="translate(435.87 2170.28) rotate(-79.2)"/><circle class="cls-26" cx="2113.54" cy="923.68" r="21.89" transform="translate(550.29 2409.29) rotate(-79.2)"/><circle class="cls-26" cx="1859.03" cy="871.79" r="21.89" transform="translate(394.46 2117.13) rotate(-79.2)"/><path class="cls-28" d="M2106.78,926.37C2114,893.83,2120,833.25,2084,829c-45.89-5.46-142.32-22.21-172.35-28.77-24.43-5.33-42.75,46.86-47.69,79.51,0,0-3.39-49.23,2.31-72.44,3.94-16,29-121,157.12-96.53s109.39,136.65,104.71,160.55S2106.78,926.37,2106.78,926.37Z" transform="translate(-259.82 -417.36)"/><path class="cls-28" d="M1933.65,859.13c-5.89-8.76-20.45-11.18-31.27-4.07-6.64,3.61-8.88,11.63-8.88,11.63C1899.42,857.88,1922.28,854.16,1933.65,859.13Z" transform="translate(-259.82 -417.36)"/><path class="cls-22" d="M2138.75,845.7s11.6-138.34-113-155.59C1923.27,670.56,1878,757.22,1868.91,789,2035.56,789,2138.75,845.7,2138.75,845.7Z" transform="translate(-259.82 -417.36)"/><path class="cls-29" d="M1878.5,973.48c29.73,53.45,70.42,65.63,70.42,65.63s75,1.81,111.86-36.32c17.35-13.09,55.09-57.76,51.17-104.48,0,0-27.4,89.62-78.55,60-38-21.83-76.61-22.64-112.34-20.41-54.22,5.79-55.44-70.2-48.66-95C1843.77,908.27,1873.49,965.56,1878.5,973.48Zm33.27-4.12c2.58-13.5,33.72-23.3,63.7-18.17,36.58,6.26,51.71,20,49.13,33.5s-24.29,32.72-66.1,25.54C1928.53,1005.08,1909.22,982.74,1911.78,969.36Z" transform="translate(-259.82 -417.36)"/><path id="_Clipping_Path_2" data-name="&lt;Clipping Path&gt;" class="cls-1" d="M2121.2,897s-23.86-43.25-122.22-62.84-124.3,2.06-136.46,11.84c-11.79-7.38-13-44.89,4.6-71.58,29.73-45.06,270.56-12,276.65,56.08C2144.07,865.32,2134.42,884,2121.2,897Z" transform="translate(-259.82 -417.36)"/><g class="cls-30"><path class="cls-25" d="M2100,902.95c3.56-2.55,6.1-6.25,8.63-9.76s4.87-7.06,7.07-10.74a128,128,0,0,0,10.94-23.17,102.73,102.73,0,0,0,5.47-24.94,90.17,90.17,0,0,0-1.28-25.09,77.39,77.39,0,0,0-8.61-23.51q-.76-1.33-1.57-2.62a1.69,1.69,0,1,0-2.92,1.71,72.91,72.91,0,0,1,9.18,22.24,85.27,85.27,0,0,1,2,24.12,96.53,96.53,0,0,1-4.52,24,119.66,119.66,0,0,1-9.92,22.54q-3.08,5.46-6.63,10.64-1.77,2.58-3.64,5.09a46.37,46.37,0,0,1-3.8,4.65,16.15,16.15,0,0,1-2.15,1.9,1.74,1.74,0,0,0-.61,2.31,1.7,1.7,0,0,0,2.31.61Z" transform="translate(-259.82 -417.36)"/><path class="cls-25" d="M2075.94,889.75c7.75-4,12.79-11.57,16.63-19.13a114.27,114.27,0,0,0,9.22-25.14,120.83,120.83,0,0,0,.61-53.3,115.08,115.08,0,0,0-8.61-25.35q-.72-1.5-1.48-3a1.69,1.69,0,0,0-2.92,1.71,110.52,110.52,0,0,1,9,24.29,117.57,117.57,0,0,1,.9,51.29,111.93,111.93,0,0,1-8.1,24.6,76.65,76.65,0,0,1-6.13,11,32.68,32.68,0,0,1-8.22,8.53,25.47,25.47,0,0,1-2.62,1.55,1.69,1.69,0,0,0,1.71,2.92Z" transform="translate(-259.82 -417.36)"/><path class="cls-25" d="M2059.34,870.72A148.9,148.9,0,0,0,2068,849.4a150.47,150.47,0,0,0,5.21-22.17,155.59,155.59,0,0,0,1.9-22.94,153.83,153.83,0,0,0-1.57-23,146.15,146.15,0,0,0-5-22.22q-.41-1.34-.85-2.67a1.73,1.73,0,0,0-2.08-1.18,1.71,1.71,0,0,0-1.18,2.08,146,146,0,0,1,5.36,21.91,147.87,147.87,0,0,1,1.9,22.13,149,149,0,0,1-6.1,44.24,143.26,143.26,0,0,1-7.94,20.87q-.6,1.26-1.22,2.52a1.73,1.73,0,0,0,.61,2.31,1.71,1.71,0,0,0,2.31-.61Z" transform="translate(-259.82 -417.36)"/><path class="cls-25" d="M2033.76,865.07a171,171,0,0,0,11.49-41.86,175.22,175.22,0,0,0,.77-43.64,172.62,172.62,0,0,0-4.37-24.15,1.69,1.69,0,0,0-3.26.9,168.89,168.89,0,0,1,5.27,42.41,171.58,171.58,0,0,1-5.41,42.4,169.31,169.31,0,0,1-7.74,23,1.7,1.7,0,0,0,1.18,2.08,1.73,1.73,0,0,0,2.08-1.18Z" transform="translate(-259.82 -417.36)"/><path class="cls-25" d="M2009.86,848.76l5.12-40.68,5.12-40.68,2.87-22.82a1.7,1.7,0,0,0-1.69-1.69,1.73,1.73,0,0,0-1.69,1.69l-5.12,40.68-5.12,40.68-2.87,22.82a1.7,1.7,0,0,0,1.69,1.69,1.73,1.73,0,0,0,1.69-1.69Z" transform="translate(-259.82 -417.36)"/><path class="cls-25" d="M1978.68,842.84a345.66,345.66,0,0,1,7.73-80.19q2.41-11.15,5.55-22.13a1.69,1.69,0,1,0-3.26-.9,348.34,348.34,0,0,0-8.88,39.72,352.49,352.49,0,0,0-4.24,40.69q-.52,11.4-.28,22.82a1.69,1.69,0,0,0,3.38,0Z" transform="translate(-259.82 -417.36)"/><path class="cls-25" d="M1950.57,836.95a240.55,240.55,0,0,1-1-43.79,237.8,237.8,0,0,1,6.91-42.79c.45-1.76.91-3.53,1.44-5.27a37.57,37.57,0,0,1,1.52-4.24,23.14,23.14,0,0,1,1.09-2.13q.27-.47.57-.92l.3-.45c0-.06.39-.52.27-.37a13.28,13.28,0,0,1,1.58-1.68l.27-.23.28-.23.09-.06c.35-.24.7-.47,1.06-.69a1.69,1.69,0,0,0-1.71-2.92c-5.34,3.1-7.58,9.24-9.12,14.89-1.95,7.11-3.55,14.32-4.82,21.57a243.6,243.6,0,0,0-3.67,44.34,240.1,240.1,0,0,0,1.54,25,1.74,1.74,0,0,0,1.69,1.69,1.7,1.7,0,0,0,1.69-1.69Z" transform="translate(-259.82 -417.36)"/><path class="cls-25" d="M1919.13,838.27a209.12,209.12,0,0,1-2.29-41.3,205.83,205.83,0,0,1,1.89-20.52,114.43,114.43,0,0,1,3.76-17.77,47.54,47.54,0,0,1,8.88-16.93,1.73,1.73,0,0,0,0-2.39,1.7,1.7,0,0,0-2.39,0c-8,9.34-11.2,21.52-13.08,33.42a212.83,212.83,0,0,0-2.43,42.44,215.28,215.28,0,0,0,2.41,23.94,1.7,1.7,0,0,0,2.08,1.18,1.73,1.73,0,0,0,1.18-2.08Z" transform="translate(-259.82 -417.36)"/><path class="cls-25" d="M1890.93,841.14c-.37-14.15-.75-28.36.71-42.47,1.28-12.37,4.1-24.79,9.4-36a75.15,75.15,0,0,1,11-17.09,1.73,1.73,0,0,0,0-2.39,1.7,1.7,0,0,0-2.39,0c-8.25,9.55-13.8,21.11-17.22,33.2-3.73,13.17-4.92,26.93-5.13,40.57-.13,8.07.08,16.14.3,24.2a1.69,1.69,0,1,0,3.38,0Z" transform="translate(-259.82 -417.36)"/><path class="cls-25" d="M1871.24,846.5a161.77,161.77,0,0,1-3.48-23.58,168.71,168.71,0,0,1,0-24.18A167,167,0,0,1,1878,751.94q2.07-5.5,4.54-10.84a50.53,50.53,0,0,1,5.82-10c.6-.77,1.25-1.5,1.92-2.2,1.51-1.57-.88-4-2.39-2.39a41.59,41.59,0,0,0-6.84,10c-1.89,3.69-3.53,7.53-5.06,11.37a166.15,166.15,0,0,0-7.36,23.26,172.57,172.57,0,0,0-4,24.43,168.71,168.71,0,0,0,2.71,48.83q.31,1.52.65,3a1.69,1.69,0,0,0,3.26-.9Z" transform="translate(-259.82 -417.36)"/></g><path class="cls-29" d="M1934.29,975.93c4.47-3.62,28.81-15.9,51.64-7,23,8.93,18,26,0,21.71s-26.61-5.6-47-2.7C1927.56,989.54,1929.83,979.55,1934.29,975.93Z" transform="translate(-259.82 -417.36)"/><path class="cls-31" d="M2135,929.09a1.31,1.31,0,0,1-1.28-1.58h0c.1-.48,2.41-11.74-7-19.82-5.44-4.13-9.13-4.2-9.16-4.2a1.31,1.31,0,0,1-1.08-2l3.57-5.18a1.33,1.33,0,0,1,.3-.31c.12-.09,12.17-9.14,18.22-30.33s5.54-43.4-1.13-49.46a1.31,1.31,0,0,1-.43-.91c-.29-6.71-10.08-50.39-19-64a1.3,1.3,0,1,1,2.18-1.43c8.89,13.57,18.64,56.41,19.36,64.76,7.1,7.2,7.78,29.67,1.5,51.73-6,20.92-17.34,30.3-19,31.58l-2.28,3.32a24.46,24.46,0,0,1,8.57,4.43c10.63,9.18,8,21.87,7.87,22.41A1.3,1.3,0,0,1,2135,929.09Z" transform="translate(-259.82 -417.36)"/><path class="cls-28" d="M2058.81,909c4.79-10.16.78-24.88-11.61-30.89a28,28,0,0,0-17.2-1.69C2041.28,877,2057.15,895.88,2058.81,909Z" transform="translate(-259.82 -417.36)"/><path class="cls-32" d="M1711.59,1057.92l16.16-50.29s-.65-14-5.63-21.73c-8.07-6.23-16.71-28.16-6.88-33.61,18.23,12.81,26.9,27.75,35.43,53.22,2.45,22.42-2.67,68.07-2.67,68.07C1739.77,1098.41,1700.83,1091.07,1711.59,1057.92Z" transform="translate(-259.82 -417.36)"/><path class="cls-32" d="M1697.13,1081.07l16.88-45.53s-3.68-13.5-10.21-20c-9.23-4.32-22.43-23.86-14-31.32,20.57,8.54,32.28,21.24,46.15,44.25,7.26,21.36-2.38,68.24-2.38,68.24C1725.31,1121.56,1686.37,1114.21,1697.13,1081.07Z" transform="translate(-259.82 -417.36)"/><path class="cls-32" d="M1700.23,1042.32c7.53,2.8,15.31,12.21,15.31,12.21l.23,3.32,20.19-9.14a43.81,43.81,0,0,0-5.55-7.67c-19.3-13.29-33.16-19.16-52.58-18.55C1673.83,1031.43,1691.34,1042.2,1700.23,1042.32Z" transform="translate(-259.82 -417.36)"/><path class="cls-32" d="M1717,1047.89l25-41.39s4.26-19.41,3.08-28.54c-4.64-9.08-3.07-32.6,8.14-33.33,11,19.37,12.46,36.58,9.29,63.25-3.54,23.64-17.08,63.5-17.08,63.5C1730.8,1093.09,1697.68,1076.92,1717,1047.89Z" transform="translate(-259.82 -417.36)"/><path class="cls-26" d="M1708.71,1142.16c0-1.94-37.51-25.89-11-66.71,21.8-33.59,46.87-50.3,46.87-50.3l20.8,10.41c-9.4,27.63-12.54,34.87-11.32,56.08C1750.81,1123.37,1725.6,1145.65,1708.71,1142.16Z" transform="translate(-259.82 -417.36)"/><path class="cls-26" d="M1744.57,1024.56l-17.52,14.55c-31.53,26.68-35.3,63.06-35.3,63.06l57.13-29.64s9.16-20.48,14.28-31.26,16.44-48,17-49.32C1756.43,980.36,1744.57,1024.56,1744.57,1024.56Z" transform="translate(-259.82 -417.36)"/><path class="cls-26" d="M2065.69,1254.15s-22.77,4.05-50-11.29l-14.92-8.6s-36.85-2.1-32.33-21.54c1.08.17,30.3,3.17,39.29,4s36.93,5.06,36.93,5.06,21.72.55,28.74,12.91C2082.31,1250.32,2065.69,1254.15,2065.69,1254.15Z" transform="translate(-259.82 -417.36)"/><path class="cls-26" d="M2046.79,1265.84l-52.81-.6s-13.16,4.75-19.1,11.79c-3.57,9.55-22,24.27-30.09,16.49,6.86-21.19,18.57-33.88,40.4-49.55,20.7-9,65.83-17.53,65.83-17.53C2077.16,1227,2081.64,1266.34,2046.79,1265.84Z" transform="translate(-259.82 -417.36)"/><path class="cls-26" d="M2055.57,1279.69l-36.12-11.49s-11.82,7.5-16.09,15.66c-1.41,10.09-16.18,28.47-25.79,22.63,2.09-22.18,10.77-37.11,28.66-57.15,18.26-13.24,52.57-20.36,52.57-20.36C2089.1,1225.56,2100.6,1281.61,2055.57,1279.69Z" transform="translate(-259.82 -417.36)"/><path class="cls-26" d="M2035.23,1281.3c.46-8,7.15-18.23,7.15-18.23l3.1-1.2-14.69-16.59a43.81,43.81,0,0,0-5.69,7.56c-7,22.36-8.52,37.34-2.21,55.71C2032.62,1309.74,2037.75,1289.83,2035.23,1281.3Z" transform="translate(-259.82 -417.36)"/><path class="cls-26" d="M2035.94,1265.23,1989,1253.54s-19.8,1.66-28.18,5.48c-7.3,7.11-30.24,12.55-34.25,2.05,15.26-16.23,31.27-22.7,57.7-27.54,23.63-3.59,65.72-2.42,65.72-2.42C2075,1238.67,2069.36,1275.09,2035.94,1265.23Z" transform="translate(-259.82 -417.36)"/></g><g id="police"><path class="cls-10" d="M847.95,1378.44s-30.28,101.44-168.64,70.1-185.24-152.36-162.21-226,152.83-91.86,240.56-15S850.79,1302.51,847.95,1378.44Z" transform="translate(-259.82 -417.36)"/><path class="cls-33" d="M1138.81,1091.13s143.94,82,208,73.73c66.21-8.59,148.38-279,148.38-279l-51.73-27.14-111.17,165.45-103.55-81.56Z" transform="translate(-259.82 -417.36)"/><path class="cls-34" d="M965.67,952.08s66.18,110.13,199.13,161.13c108.61-73.93,79.63-158.56,79.63-158.56S1128.55,856.08,1059.34,844,950.11,920.92,965.67,952.08Z" transform="translate(-259.82 -417.36)"/><path class="cls-35" d="M1125.84,1095.44c21.31-7.65,109-151.53,92-161.21,18.83,1.85,35.34,8.79,46.09,28.35,23.71,12.93-62.93,171.92-86.64,159Q1148.76,1127.93,1125.84,1095.44Z" transform="translate(-259.82 -417.36)"/><path class="cls-34" d="M818.54,1383.17C709,1465.69,520.08,1330.81,547,1223.76c93-204.65,157-397.68,218.76-422.37,147.51-59,291,7.06,347.47,81.13,22.45,29.42,12.92,171.42-32.11,257.22C1059.12,1179,818.54,1383.17,818.54,1383.17Z" transform="translate(-259.82 -417.36)"/><path class="cls-33" d="M990.22,903.84c-7.84-21.62-57.45-78.06-65.52-101.4l69-103.93,63.75,31.16a209.85,209.85,0,0,1,42.78,42.26l-29.49,78.26-6.34,17C1062.05,886.3,1037.48,896,990.22,903.84Z" transform="translate(-259.82 -417.36)"/><path class="cls-36" d="M999.17,735c.5,20.33,17.12,81.83,71.6,115.17l25.52-67.71Z" transform="translate(-259.82 -417.36)"/><path class="cls-33" d="M1213,651.8c-5.16,24.65-17.15,78.45-29.16,100.28-18.28,33.23-67.82,56.73-98.13,49-33.95-11.49-73.28-41.1-87.71-72.33-6.15-21.51-15-69.92-12.07-107.45,6-78.28,80.27-115.48,146.6-101.64S1229.05,575,1213,651.8Z" transform="translate(-259.82 -417.36)"/><path class="cls-37" d="M985.83,674.75c-2.47-27.79,18.27-29.13,28.72-3.66,4.47-18.08,7.74-75.54,31.94-84,27.56-10.11,107.42,36.19,173.68,9.85,0,0,0-88.65-129.62-95.42C936.46,510.66,985.83,674.75,985.83,674.75Z" transform="translate(-259.82 -417.36)"/><path class="cls-33" d="M1010.95,660.86c4.23,15.88-2.36,31.39-14.72,34.64s-25.8-7-30-22.89,2.36-31.39,14.72-34.64S1006.72,645,1010.95,660.86Z" transform="translate(-259.82 -417.36)"/><path class="cls-34" d="M1219.82,600.4c-12-10.64-208.42-20.41-209.68-6.07,0,0,120.13,55.47,220.09,55.53C1284.79,649.91,1219.82,600.4,1219.82,600.4Z" transform="translate(-259.82 -417.36)"/><path class="cls-35" d="M980.23,593.52l240.79,7,6.15-31.76-254.22-9.32C972.69,571.21,975.14,585.21,980.23,593.52Z" transform="translate(-259.82 -417.36)"/><path class="cls-34" d="M964.2,563.16c-25.93-1.66-31.62-20.55,2.41-36,52.49-23.91,122.21-114.5,181.71-109.55,41,3.41,48.85,56.83,83.93,103.79,15.91,21.3,22.24,38.87,7.78,49.52C1207.62,577.94,991.36,564.89,964.2,563.16Z" transform="translate(-259.82 -417.36)"/><path class="cls-38" d="M1173.71,475.25l.09-1.33a59.16,59.16,0,0,1-14.92-6.82,47.44,47.44,0,0,1-11.31-9.88h0l-.05,0a42.59,42.59,0,0,1-5.72,4.45,53.84,53.84,0,0,1-9.23,4.77c-1.66.68-3.36,1.31-5.11,1.83a58.18,58.18,0,0,1-8.07,1.82l-.54,7.91-.27,3.94-.16,2.37-.61,8.91a36,36,0,0,0,1.35,12.66,37.17,37.17,0,0,0,1.3,3.71,42.24,42.24,0,0,0,5.55,9.56,53,53,0,0,0,6.67,7.18,58.61,58.61,0,0,0,7.62,5.8c.95.6,1.68,1,2.11,1.26a60,60,0,0,0,8.25-4.19,57.81,57.81,0,0,0,4.9-3.33c.84-.64,1.69-1.33,2.54-2.05,6.77-5.83,13.28-14.53,14.12-26.81Z" transform="translate(-259.82 -417.36)"/><path class="cls-10" d="M1162.63,496.63a17.74,17.74,0,1,1-16.4-18.92A17.68,17.68,0,0,1,1162.63,496.63Z" transform="translate(-259.82 -417.36)"/><path class="cls-39" d="M1128.46,724.76A28.4,28.4,0,0,1,1114.1,721a1.28,1.28,0,0,1,1.38-2.16,27.37,27.37,0,0,0,19.6,2.52,2.71,2.71,0,0,0,1.69-1.43c5-8.67-4.61-46.25-8.73-60a1.28,1.28,0,1,1,2.46-.74c.62,2.06,15.06,50.63,8.5,62a5.21,5.21,0,0,1-3.32,2.65A31,31,0,0,1,1128.46,724.76Z" transform="translate(-259.82 -417.36)"/><path class="cls-39" d="M1120.34,768.53a1.28,1.28,0,0,1-1.1-1.94,5.66,5.66,0,0,0,.38-5.6c-6.59-14.21-62.59-23.83-63.16-23.92a1.28,1.28,0,0,1,.43-2.53c2.36.4,57.9,10,65.06,25.37a8.17,8.17,0,0,1-.5,8A1.28,1.28,0,0,1,1120.34,768.53Z" transform="translate(-259.82 -417.36)"/><ellipse class="cls-40" cx="1079.83" cy="654.25" rx="7.65" ry="5.74" transform="translate(31.67 1223.09) rotate(-82.57)"/><path class="cls-40" d="M1062,633s23,10.39,38.73,24.67c4.82-3.29-16.14-28-28-32.57Z" transform="translate(-259.82 -417.36)"/><ellipse class="cls-40" cx="1173.8" cy="670.91" rx="7.65" ry="5.74" transform="translate(96.98 1330.78) rotate(-82.57)"/><path class="cls-40" d="M1197.62,661.74s-25.16-1.52-45.76,3.78c-2.73-5.16,27.35-17.28,39.94-15.77Z" transform="translate(-259.82 -417.36)"/><path class="cls-41" d="M1006.91,873.63l-2.88,27,15.15-21.2-8.5,43.84c.29-8-7.88-20.14-7.88-20.14A48.17,48.17,0,0,0,972.62,911Z" transform="translate(-259.82 -417.36)"/><path class="cls-35" d="M941.15,777.34c3.06,28.29,43.29,71.13,65.77,96.29L972.62,911c-26.21-31.53-61.17-70.53-56-121.91C918.93,775.62,927.78,772.83,941.15,777.34Z" transform="translate(-259.82 -417.36)"/><path class="cls-35" d="M1072,848.66c-5.76,6.07-23.72,32.7-52.81,30.74l-8.5,43.84c41,1.31,52.46-13.77,63.3-41.84C1078.25,870.19,1081.51,857.39,1072,848.66Z" transform="translate(-259.82 -417.36)"/><path class="cls-41" d="M672.41,1392.88a1.6,1.6,0,0,1-1-2.85c154.13-124.84,310.18-372.24,329.83-487.21a1.6,1.6,0,0,1,3.16.54c-9.52,55.69-51.78,144.72-113,238.16-67.18,102.45-144.58,191.59-217.92,251A1.6,1.6,0,0,1,672.41,1392.88Z" transform="translate(-259.82 -417.36)"/><path class="cls-38" d="M1062.21,1049.29l.55-1.17a57.53,57.53,0,0,1-11.17-11.4,46.12,46.12,0,0,1-6.83-12.91h0l-.06,0a41.47,41.47,0,0,1-6.75,2,52.44,52.44,0,0,1-10,1.11c-1.75,0-3.51,0-5.29-.12a56.62,56.62,0,0,1-8-1.16l-3.25,7-1.62,3.48-1,2.09-3.67,7.88a35,35,0,0,0-3.19,12,36.12,36.12,0,0,0-.11,3.82,41.07,41.07,0,0,0,1.71,10.62,51.55,51.55,0,0,0,3.55,8.85,57,57,0,0,0,4.9,7.93c.65.88,1.17,1.52,1.47,1.88a58.38,58.38,0,0,0,9-.93A56.32,56.32,0,0,0,1028,1089c1-.29,2-.61,3-1,8.19-2.93,17.14-8.57,22.19-19.42Z" transform="translate(-259.82 -417.36)"/><rect class="cls-35" x="965.55" y="1104.12" width="74.99" height="13.75" transform="translate(329.94 -744.98) rotate(26.05)"/><path class="cls-33" d="M699.53,1102.84s21.6,161.81,66.35,207.07c46.25,46.78,308.35,21.08,308.35,21.08l-9-63.3-197.73-53.12,2.13-129.85Z" transform="translate(-259.82 -417.36)"/><path class="cls-34" d="M705.2,884.13s-46.84,117.61-7.46,252.27c122.77,41,171.82-32.21,171.82-32.21s8.11-149.66-23.75-211.11S720.34,853.34,705.2,884.13Z" transform="translate(-259.82 -417.36)"/><path class="cls-35" d="M688.41,1095.26c18.72,12.14,183.82-5,181.3-24.07,9.79,15.86,14.2,32.95,5.29,53.05,4,26.3-172.33,53.28-176.35,27Q676.62,1132.61,688.41,1095.26Z" transform="translate(-259.82 -417.36)"/><path class="cls-41" d="M869.71,1072.7a1.51,1.51,0,0,1-1.47-1.85c5.17-22.49,6.42-51.06,3.43-78.39a1.51,1.51,0,0,1,3-.33c3,27.65,1.75,56.59-3.49,79.39A1.51,1.51,0,0,1,869.71,1072.7Z" transform="translate(-259.82 -417.36)"/><path class="cls-33" d="M1037.46,1263.22s20-38.72,29-38.48,13.62,4.47,13.62,4.47,17.76-15.91,33-2,36,39.54,25.23,67.43-61.75,44.2-81.83,34.11C1056.51,1328.71,1015.76,1309.77,1037.46,1263.22Z" transform="translate(-259.82 -417.36)"/><path class="cls-33" d="M1514.32,826.44c-12-23.07-40.47-60-51.75-59.83s-40.05,52.46-39.18,68.38c.72,13.11,7.72,41.71,13.38,52.25,7.11,13.23,38.77,25.73,55.72,3.81S1522.87,842.81,1514.32,826.44Z" transform="translate(-259.82 -417.36)"/><path class="cls-39" d="M1468.69,849.38a1.28,1.28,0,0,1-1.22-.87c-9.31-27.64-25.13-42.83-25.29-43l-.76-.72.54-.89c.06-.09,5.64-9.32,10.6-25.34,1.27-4.12,1-7.75-.76-10.8-3.6-6.17-12.21-8.11-12.29-8.13a1.28,1.28,0,0,1,.55-2.51c.4.09,9.8,2.22,14,9.35,2.15,3.69,2.49,8,1,12.85a130.58,130.58,0,0,1-10.34,25c3.3,3.36,16.74,18.11,25.23,43.31a1.28,1.28,0,0,1-1.22,1.69Z" transform="translate(-259.82 -417.36)"/><path d="M1530.27,1072.59c-23.49-1.19-42.15-19.21-42.15-41.27s18.65-40.08,42.15-41.27v-9.32c-29,1.2-52.19,23.39-52.19,50.59s23.14,49.39,52.19,50.59C1539.09,1081.91,1539.09,1072.59,1530.27,1072.59Z" transform="translate(-259.82 -417.36)"/><path d="M1590.72,1011.79c-7.56-19.38-26.66-31.1-47.53-31.33v9.43c16.79.41,32.08,9.93,38.18,25.55,8,20.55-2.8,44.12-24.26,53.77-8.22,3.21-4.83,11.88,3.39,8.68C1587.12,1066.21,1600.61,1037.13,1590.72,1011.79Z" transform="translate(-259.82 -417.36)"/><polygon points="1300.11 572.9 1252.5 572.9 1259.04 550.53 1293.57 550.53 1300.11 572.9"/><polygon points="1235.17 440.02 1278.55 420.41 1281.81 443.48 1250.35 457.71 1235.17 440.02"/><path d="M1477.34,763.32a50.17,50.17,0,1,0,66.38,25A50.17,50.17,0,0,0,1477.34,763.32Zm37.58,83.11a41,41,0,1,1,20.49-54.31A41,41,0,0,1,1514.92,846.43Z" transform="translate(-259.82 -417.36)"/><path class="cls-10" d="M1521.73,857.85h0a2.16,2.16,0,0,1-2.8-1.21h0a2.16,2.16,0,0,1,1.21-2.8h0a2.16,2.16,0,0,1,2.8,1.21h0A2.16,2.16,0,0,1,1521.73,857.85Z" transform="translate(-259.82 -417.36)"/><path class="cls-10" d="M1523.31,861.85h0a.82.82,0,0,1-1.06-.46l-1.47-3.72a.82.82,0,0,1,.46-1.06h0a.82.82,0,0,1,1.06.46l1.47,3.72A.82.82,0,0,1,1523.31,861.85Z" transform="translate(-259.82 -417.36)"/><path d="M1532.62,901.18a7.44,7.44,0,0,1-7.15-5.42l-4.06-14.49a7.44,7.44,0,0,1,5.15-9.15l2.05-.57a7.44,7.44,0,0,1,9.15,5.15l4.06,14.49a7.44,7.44,0,0,1-5.15,9.15l-2,.57A7.41,7.41,0,0,1,1532.62,901.18Zm-2-24.44a1.91,1.91,0,0,0-.52.07l-2.05.57a2,2,0,0,0-1.35,2.41l4.06,14.49a2,2,0,0,0,2.41,1.35l2-.57a2,2,0,0,0,1.35-2.41l-4.06-14.49a2,2,0,0,0-1.89-1.43Z" transform="translate(-259.82 -417.36)"/><path d="M1537.21,933a7.44,7.44,0,0,1-7.38-6.63l-1.61-15a7.43,7.43,0,0,1,6.59-8.18l2.12-.23a7.44,7.44,0,0,1,8.18,6.59l1.61,15a7.43,7.43,0,0,1-6.59,8.18l-2.12.23A7.53,7.53,0,0,1,1537.21,933Zm.51-24.57h-.21l-2.12.23a2,2,0,0,0-1.73,2.15l1.61,15a2,2,0,0,0,2.15,1.73l2.12-.23a2,2,0,0,0,1.73-2.15l-1.61-15a2,2,0,0,0-1.94-1.74Z" transform="translate(-259.82 -417.36)"/><path d="M1539.14,966.44H1537a7.43,7.43,0,0,1-7.43-7.43V944a7.43,7.43,0,0,1,7.43-7.43h2.13a7.43,7.43,0,0,1,7.43,7.43v15A7.43,7.43,0,0,1,1539.14,966.44ZM1537,942a2,2,0,0,0-2,2v15a2,2,0,0,0,2,2h2.13a2,2,0,0,0,2-2V944a2,2,0,0,0-2-2Z" transform="translate(-259.82 -417.36)"/><path d="M1536.71,913.49a2.74,2.74,0,0,1-2.69-2.27l-3.19-18.33a2.74,2.74,0,1,1,5.39-.94l3.19,18.33a2.74,2.74,0,0,1-2.7,3.2Z" transform="translate(-259.82 -417.36)"/><path d="M1538.36,947.08a2.74,2.74,0,0,1-2.73-2.71l-.21-18.61a2.74,2.74,0,1,1,5.47-.06l.21,18.61a2.74,2.74,0,0,1-2.7,2.77Z" transform="translate(-259.82 -417.36)"/><path d="M1538.34,980.21h0a2.74,2.74,0,0,1-2.71-2.76l.17-18.61a2.78,2.78,0,0,1,2.76-2.71,2.74,2.74,0,0,1,2.71,2.76l-.17,18.61A2.74,2.74,0,0,1,1538.34,980.21Z" transform="translate(-259.82 -417.36)"/><path d="M1529.62,880.87A2.74,2.74,0,0,1,1527,879l-4.62-13.2a2.74,2.74,0,1,1,5.16-1.81l4.62,13.2a2.74,2.74,0,0,1-2.58,3.64Z" transform="translate(-259.82 -417.36)"/><path class="cls-10" d="M1537.62,977.4h0a2.16,2.16,0,0,1-2.17-2.15h0a2.16,2.16,0,0,1,2.15-2.17h0a2.16,2.16,0,0,1,2.17,2.15h0A2.16,2.16,0,0,1,1537.62,977.4Z" transform="translate(-259.82 -417.36)"/><path class="cls-10" d="M1537.63,981.71h0a.82.82,0,0,1-.82-.82v-4a.82.82,0,0,1,.82-.82h0a.82.82,0,0,1,.82.82v4A.82.82,0,0,1,1537.63,981.71Z" transform="translate(-259.82 -417.36)"/><path class="cls-33" d="M1464.08,786.75c-.8,0-10.21,11.35-14.06,25.89a73.83,73.83,0,0,0-7-8s5.66-9.24,10.73-25.63-14-20.56-14-20.56-18.18,24.14-20,47.08,13.41,69.73,13.41,69.73l28.79-22c14.54,12.93,34.78,13.49,39.87,5.34,6.41-10.26,8.65-22.43,8.65-22.43Z" transform="translate(-259.82 -417.36)"/><path class="cls-39" d="M1487.4,864.69c-9.31,0-19.85-5-30-14.54-21-19.74-.67-56.74.21-58.3a1.28,1.28,0,0,1,2.24,1.25c-.2.37-20.25,36.82-.69,55.18,12.29,11.54,25.05,16.18,35,12.74,8.25-2.85,14-11.15,15.76-22.76a1.28,1.28,0,0,1,2.54.39c-1.92,12.59-8.28,21.63-17.46,24.8A23.28,23.28,0,0,1,1487.4,864.69Z" transform="translate(-259.82 -417.36)"/><path class="cls-39" d="M1457.45,848.44a1.28,1.28,0,0,1-1-2.11c14.11-16.66,15.45-39.43,15.46-39.66a1.28,1.28,0,1,1,2.56.13c-.05,1-1.4,23.88-16.07,41.19A1.28,1.28,0,0,1,1457.45,848.44Z" transform="translate(-259.82 -417.36)"/><path class="cls-39" d="M1475.44,861a1.28,1.28,0,0,1-1-2.11c14.11-16.66,15.45-39.43,15.46-39.66a1.28,1.28,0,0,1,2.56.13c-.05,1-1.4,23.88-16.07,41.19A1.28,1.28,0,0,1,1475.44,861Z" transform="translate(-259.82 -417.36)"/><path class="cls-42" d="M998.67,1055.17h0l.19-1Z" transform="translate(-259.82 -417.36)"/><path class="cls-42" d="M998.67,1055.17h0l.19-1Z" transform="translate(-259.82 -417.36)"/><path class="cls-42" d="M1386.31,1128.72l.19-1-.19,1Z" transform="translate(-259.82 -417.36)"/><path class="cls-42" d="M1386.31,1128.72l.19-1-.19,1Z" transform="translate(-259.82 -417.36)"/><path class="cls-10" d="M1212.77,986.9c-54.14,39.83-133.59,66-213.91,68.53L967.63,1219.9c-33.16,174.68,118.16,291.05,141.69,309,27.28-6.86,212.33-60.83,245.49-235.51L1386,1128.89C1312.24,1097.11,1248.54,1043.79,1212.77,986.9Z" transform="translate(-259.82 -417.36)"/><path class="cls-43" d="M1206.45,1018.41c-51.76,32.23-119,52.65-189.63,57.48l-28.1,148c-12.86,67.72,2.84,134,46.65,197.13a391.1,391.1,0,0,0,78.85,83.2l2.81-.85,89.74-484.54Z" transform="translate(-259.82 -417.36)"/><path class="cls-44" d="M1206.77,1018.83,1117,1503.37a391.32,391.32,0,0,0,101-47.69c63.88-42.65,102.8-98.61,115.65-166.33l28.1-148C1298,1111.06,1243.12,1067.6,1206.77,1018.83Z" transform="translate(-259.82 -417.36)"/><path class="cls-10" d="M1088.87,1217.81l-21.25,114.75c-2.37,12.77,154.37,41.79,156.73,29l21.25-114.75Zm75,76.91-6,32.52a8.06,8.06,0,1,1-15.86-2.94l6-32.6a19.61,19.61,0,1,1,15.84,3Z" transform="translate(-259.82 -417.36)"/><path class="cls-10" d="M1233.4,1236.11l-15.87-2.94,1.43-7.73a49.61,49.61,0,0,0-97.55-18.06l-1.43,7.73-15.87-2.94,1.43-7.73c6.57-35.48,40.92-59,76.56-52.38a65.66,65.66,0,0,1,52.72,76.31Z" transform="translate(-259.82 -417.36)"/></g></g></svg>